<svg width="346" height="250" viewBox="0 0 346 250" fill="none" xmlns="http://www.w3.org/2000/svg">
<g clip-path="url(#clip0_166_2320)">
<path d="M277.458 146.012C274.038 145.954 272.291 145.918 270.334 145.467C265.938 144.45 262.314 142.197 262.533 141.514C262.707 140.976 265.167 141.703 265.545 140.904C266.106 139.712 260.757 136.529 261.15 135.831C261.419 135.345 264.272 136.333 264.286 136.282C264.301 136.224 260.917 135.417 260.961 134.676C260.99 134.204 262.409 134.182 262.482 133.644C262.642 132.518 257.322 131.45 257.373 129.844C257.395 129.088 258.589 129.059 259.018 128.034C259.978 125.723 255.336 122.235 255.882 121.465C256.5 120.593 263.202 124.125 263.26 124.016C263.326 123.892 254.906 119.946 255.43 117.962C255.634 117.178 257.053 117.425 257.723 116.313C259.032 114.118 255.358 110.122 255.947 109.562C256.667 108.879 262.562 113.886 262.504 113.958C262.445 114.031 256.595 109.475 256.922 108.966C257.068 108.741 258.254 109.606 258.872 109.162C260.08 108.298 257.432 103.654 258.494 102.84C259.571 102.019 263.493 105.791 263.995 105.296C264.629 104.679 258.698 98.313 259.76 97.0195C260.553 96.0603 264.745 98.5456 265.291 97.7099C265.72 97.0559 263.202 95.4136 262.256 91.9619C262.191 91.722 261.347 88.5683 262.365 87.9651C263.806 87.1076 267.99 91.9982 268.456 91.5767C268.755 91.3078 266.986 89.4039 265.8 86.2502C264.92 83.903 264.141 80.2987 265.218 79.6737C266.542 78.9034 270.319 82.842 270.508 82.6313C270.603 82.5223 269.359 81.723 269.111 80.3423C268.886 79.0851 269.693 78.5619 269.963 77.1085C270.436 74.5579 268.565 72.763 269.06 72.3415C269.839 71.673 274.569 76.1857 274.969 75.786C275.231 75.5317 273.223 73.7368 272.153 70.6556C271.185 67.8579 271.243 64.7332 272.022 64.4862C272.509 64.3263 273.012 65.409 275.202 67.7853C276.978 69.711 278.629 71.1571 278.768 71.0335C278.935 70.8882 276.432 69.1151 275.842 65.9904C275.566 64.537 276.01 64.3699 275.85 60.5258C275.799 59.2831 275.711 58.3675 275.915 58.3239C276.192 58.2585 276.628 59.8645 277.982 62.168C278.593 63.1999 279.364 64.3408 279.495 64.2681C279.67 64.1737 278.076 62.3206 277.989 59.7482C277.894 56.8778 279.794 56.2093 279.641 52.961C279.575 51.6239 279.19 50.3377 279.597 50.1561C280.041 49.9599 280.733 51.3696 281.511 51.2243C282.588 51.0281 282.705 48.1068 283.163 48.1141C283.738 48.1286 283.068 52.6268 285.528 54.6324C286.78 55.657 287.871 55.2355 288.402 56.2384C289.349 58.0187 286.765 60.969 287.253 61.3324C287.653 61.6376 289.327 59.5593 290.156 59.9953C290.353 60.097 290.513 60.3514 290.666 62.6113C290.804 64.6606 290.717 65.1329 291.029 65.3291C291.852 65.8378 293.547 63.1999 294.69 63.6069C296.451 64.2318 294.879 71.3605 296.72 72.0073C297.63 72.327 298.561 70.7574 299.289 71.1135C300.788 71.8329 298.095 78.9761 299.893 79.9717C300.766 80.4513 301.981 79.0996 302.614 79.6083C303.655 80.4513 300.555 84.3172 302.054 87.0132C302.716 88.2049 303.597 87.9433 304.026 89.0987C304.87 91.3878 302.04 94.0111 302.745 94.7523C303.255 95.2828 304.768 93.9675 305.634 94.5706C306.559 95.2174 305.38 97.1067 305.809 99.8681C306.297 103 308.225 103.189 308.145 105.478C308.05 108.21 305.256 109.22 305.773 111.146C306.202 112.738 308.269 112.679 308.48 114.002C308.844 116.284 303.117 118.972 303.284 119.263C303.408 119.474 306.479 118.021 306.53 118.115C306.588 118.224 302.505 119.794 302.622 121.4C302.702 122.453 304.507 122.584 304.623 123.594C304.841 125.491 298.729 127.075 298.94 128.761C299.092 129.96 302.309 130.083 302.345 131.021C302.389 132.394 295.549 133.521 295.658 134.458C295.716 134.945 297.593 134.916 297.652 135.395C297.753 136.326 290.586 137.481 290.651 138.745C290.687 139.392 292.587 139.545 292.587 140.097C292.587 141.267 283.993 141.739 283.913 143.229C283.869 144.057 286.503 144.53 286.416 145.169C286.285 146.157 279.808 146.049 277.443 146.012L277.458 146.012Z" stroke="#39723B" stroke-width="0.5" stroke-miterlimit="10"/>
<path d="M276.781 146.252C277.138 145.046 277.647 143.193 278.091 140.904C279.692 132.707 279.095 126.276 278.95 124.408C278.193 114.198 281.14 105.841 282.734 93.873C284.044 84.041 284.713 69.7836 281.453 51.2242" stroke="#39723B" stroke-width="0.5" stroke-miterlimit="10"/>
<path d="M296.043 127.155C290.207 131.115 286.307 134.938 283.782 137.75C281.911 139.843 280.114 143.244 277.385 143.164C276.184 143.127 275.064 142.43 272.822 141.034C271.134 139.981 269.824 138.949 268.922 138.186" stroke="#39723B" stroke-width="0.5" stroke-linecap="round" stroke-linejoin="round"/>
<path d="M300.591 112.803C294.952 117.316 290.949 121.581 288.221 124.822C284.364 129.415 281.729 133.557 278.469 133.143C277.261 132.99 276.905 132.329 272.837 129.785C270.785 128.499 269.046 127.525 267.86 126.879" stroke="#39723B" stroke-width="0.5" stroke-linecap="round" stroke-linejoin="round"/>
<path d="M303.138 101.278C292.216 108.138 286.947 114.126 284.153 118.536C283.272 119.932 280.762 124.139 277.756 123.95C276.264 123.856 275.413 122.729 273.208 120.833C271.651 119.488 269.279 117.657 265.989 115.819" stroke="#39723B" stroke-width="0.5" stroke-linecap="round" stroke-linejoin="round"/>
<path d="M297.069 99.2286C292.798 102.048 289.843 104.926 287.857 107.149C283.563 111.967 281.89 115.95 278.993 115.753C277.851 115.673 277.545 115.019 273.703 112.309C271.644 110.855 269.912 109.758 268.791 109.075" stroke="#39723B" stroke-width="0.5" stroke-linecap="round" stroke-linejoin="round"/>
<path d="M299.325 89.7382C294.442 93.5169 290.993 96.9832 288.737 99.4612C285.368 103.16 283.556 105.856 280.456 105.95C278.695 106.001 277.21 105.195 274.394 103.661C271.898 102.302 270.013 100.856 268.747 99.7736" stroke="#39723B" stroke-width="0.5" stroke-linecap="round" stroke-linejoin="round"/>
<path d="M299.987 82.5732C294.151 86.5336 290.251 90.3559 287.726 93.1681C285.856 95.261 284.058 98.6618 281.329 98.5819C280.129 98.5456 279.008 97.848 276.767 96.4527C275.078 95.3991 273.768 94.3672 272.866 93.6042" stroke="#39723B" stroke-width="0.5" stroke-linecap="round" stroke-linejoin="round"/>
<path d="M292.303 81.5413C291.11 82.4133 289.392 83.8012 287.595 85.7705C284.982 88.6482 284.4 90.3631 282.756 90.5012C281.591 90.6029 281.016 89.8181 277.734 87.4492C275.952 86.1629 274.445 85.1892 273.47 84.5788" stroke="#39723B" stroke-width="0.5" stroke-linecap="round" stroke-linejoin="round"/>
<path d="M292.805 73.8748C290.418 75.6988 288.752 77.4283 287.66 78.6927C285.987 80.6329 285.026 82.2025 283.68 82.0863C283.018 82.0281 282.77 81.6067 281.082 80.3931C279.983 79.601 279.037 79.0197 278.389 78.6418" stroke="#39723B" stroke-width="0.5" stroke-linecap="round" stroke-linejoin="round"/>
<path d="M289.167 69.6383C288.337 70.9609 287.624 72.0581 287.071 72.8938C285.375 75.4517 284.72 76.2583 283.971 76.1929C283.687 76.1639 283.563 76.0331 282.814 75.459C281.882 74.7541 281.089 74.2236 280.551 73.8748" stroke="#39723B" stroke-width="0.5" stroke-linecap="round" stroke-linejoin="round"/>
<path d="M286.285 63.8249C285.812 64.537 285.397 65.1329 285.077 65.5762C284.094 66.9496 283.702 67.3783 283.192 67.2839C282.996 67.2475 282.908 67.1603 282.348 66.7752C281.664 66.2956 281.089 65.9323 280.696 65.6925" stroke="#39723B" stroke-width="0.5" stroke-linecap="round" stroke-linejoin="round"/>
<path d="M255.882 156.825C257.577 154.899 258.443 153.911 259.185 152.596C260.844 149.646 261.427 146.492 260.932 146.274C260.546 146.099 259.702 147.829 259.069 147.633C258.123 147.342 259.062 142.764 258.472 142.626C258.065 142.531 257.17 144.61 257.133 144.595C257.097 144.573 258.356 142.284 257.926 141.935C257.65 141.71 256.915 142.488 256.58 142.255C255.874 141.776 257.97 138.288 257.053 137.495C256.617 137.125 255.998 137.772 255.219 137.495C253.444 136.856 253.859 132.518 253.153 132.431C252.352 132.329 250.926 137.837 250.839 137.815C250.737 137.786 252.803 131.123 251.435 130.41C250.89 130.127 250.315 131.035 249.354 130.846C247.469 130.461 247.113 126.399 246.494 126.443C245.752 126.494 245.548 132.3 245.621 132.307C245.694 132.307 246.116 126.762 245.672 126.683C245.468 126.646 245.352 127.751 244.791 127.867C243.7 128.1 242.455 124.277 241.466 124.459C240.462 124.641 240.578 128.724 240.047 128.754C239.377 128.79 238.839 122.279 237.587 122.213C236.648 122.163 235.913 125.752 235.171 125.629C234.589 125.534 234.953 123.311 233.512 121.036C233.41 120.876 232.086 118.813 231.234 119.074C230.026 119.445 230.63 124.234 230.157 124.284C229.859 124.314 229.692 122.373 228.535 120.113C227.676 118.435 226.06 116.182 225.173 116.465C224.074 116.814 224.35 120.898 224.139 120.898C224.03 120.898 224.219 119.801 223.572 118.965C222.989 118.202 222.284 118.384 221.345 117.803C219.686 116.771 219.635 114.83 219.154 114.889C218.39 114.983 218.5 119.888 218.077 119.91C217.801 119.924 217.823 117.904 216.651 115.746C215.589 113.799 213.82 112.243 213.282 112.549C212.947 112.738 213.296 113.566 213.507 115.986C213.682 117.948 213.653 119.597 213.507 119.612C213.34 119.626 213.624 117.345 212.183 115.441C211.514 114.554 211.201 114.714 209.141 112.679C208.479 112.025 208.006 111.509 207.882 111.604C207.708 111.72 208.384 112.781 208.974 114.7C209.243 115.557 209.483 116.567 209.374 116.603C209.236 116.654 209.01 114.83 207.62 113.479C206.07 111.975 204.739 112.687 203.007 110.957C202.294 110.245 201.777 109.38 201.471 109.511C201.137 109.656 201.573 110.754 201.1 111.117C200.453 111.618 198.757 110.201 198.531 110.463C198.248 110.79 201.086 112.694 200.962 115.077C200.896 116.291 200.111 116.683 200.402 117.483C200.911 118.907 203.858 118.972 203.822 119.423C203.785 119.801 201.784 119.677 201.61 120.36C201.566 120.52 201.631 120.738 202.81 121.966C203.88 123.078 204.186 123.274 204.135 123.543C203.996 124.255 201.675 123.863 201.326 124.699C200.78 125.992 205.539 128.732 204.972 130.076C204.688 130.745 203.349 130.461 203.174 131.05C202.818 132.242 208.152 134.371 207.795 135.868C207.62 136.594 206.252 136.58 206.216 137.19C206.158 138.193 209.876 138.433 210.611 140.627C210.939 141.594 210.349 141.957 210.771 142.778C211.615 144.406 214.512 144.166 214.563 144.929C214.599 145.482 213.1 145.649 212.998 146.441C212.889 147.284 214.541 147.582 215.858 149.217C217.35 151.07 216.484 152.24 217.794 153.352C219.366 154.681 221.338 153.642 222.145 154.907C222.815 155.946 221.731 157.065 222.364 157.857C223.448 159.216 227.843 157.399 227.916 157.639C227.974 157.813 225.609 158.78 225.638 158.86C225.675 158.947 228.607 157.479 229.444 158.358C229.99 158.932 229.146 160.008 229.655 160.582C230.601 161.658 234.574 159.078 235.404 160.044C235.993 160.735 234.436 162.58 234.938 163.075C235.681 163.794 239.77 160.568 240.236 161.105C240.476 161.389 239.508 162.413 239.748 162.682C240.214 163.213 244.486 159.819 245.155 160.495C245.497 160.844 244.624 161.977 244.93 162.253C245.577 162.849 250.198 158.322 251.064 159.027C251.544 159.419 250.475 161.12 250.875 161.396C251.493 161.825 254.71 158.177 255.882 156.847L255.882 156.825Z" stroke="#39723B" stroke-width="0.5" stroke-miterlimit="10"/>
<path d="M256.355 156.571C255.503 156.157 254.215 155.503 252.716 154.594C247.346 151.331 244.078 147.749 243.103 146.724C237.805 141.136 231.671 138.542 224.205 133.368C218.07 129.117 209.804 122.272 201.129 111.073" stroke="#39723B" stroke-width="0.5" stroke-miterlimit="10"/>
<path d="M235.986 157.588C241.146 156.353 245.243 156.127 248.088 156.149C250.198 156.171 253 156.898 254.339 155.343C254.928 154.66 255.11 153.686 255.467 151.738C255.736 150.263 255.823 149.021 255.852 148.134" stroke="#39723B" stroke-width="0.5" stroke-linecap="round" stroke-linejoin="round"/>
<path d="M225.697 152.843C231.06 152 235.455 151.942 238.642 152.073C243.154 152.262 246.785 152.894 248.204 150.881C248.728 150.132 248.546 149.602 249.187 146.056C249.514 144.268 249.849 142.808 250.089 141.827" stroke="#39723B" stroke-width="0.5" stroke-linecap="round" stroke-linejoin="round"/>
<path d="M217.997 148.425C227.341 145.838 233.345 145.947 237.209 146.63C238.431 146.848 242.041 147.582 243.46 145.823C244.166 144.951 243.962 143.905 244.027 141.725C244.071 140.177 244.253 137.939 244.893 135.185" stroke="#39723B" stroke-width="0.5" stroke-linecap="round" stroke-linejoin="round"/>
<path d="M219.933 144.021C223.666 143.084 226.759 142.895 229 142.924C233.854 142.982 236.918 144.072 238.271 142.364C238.802 141.696 238.591 141.187 239.035 137.692C239.268 135.817 239.537 134.298 239.727 133.324" stroke="#39723B" stroke-width="0.5" stroke-linecap="round" stroke-linejoin="round"/>
<path d="M213.507 140.468C218.077 139.675 221.752 139.516 224.27 139.516C228.032 139.516 230.448 139.879 232.071 138.2C232.988 137.248 233.294 136.013 233.869 133.68C234.378 131.609 234.524 129.836 234.567 128.579" stroke="#39723B" stroke-width="0.5" stroke-linecap="round" stroke-linejoin="round"/>
<path d="M209.185 137.212C214.344 135.977 218.441 135.752 221.287 135.773C223.397 135.795 226.199 136.522 227.538 134.967C228.127 134.284 228.309 133.31 228.666 131.362C228.935 129.887 229.022 128.645 229.051 127.758" stroke="#39723B" stroke-width="0.5" stroke-linecap="round" stroke-linejoin="round"/>
<path d="M212.503 132.423C213.595 132.205 215.232 131.951 217.233 131.951C220.159 131.951 221.403 132.503 222.313 131.66C222.96 131.064 222.815 130.345 223.157 127.329C223.346 125.687 223.564 124.364 223.717 123.514" stroke="#39723B" stroke-width="0.5" stroke-linecap="round" stroke-linejoin="round"/>
<path d="M207.992 128.819C210.218 128.419 212.016 128.368 213.275 128.405C215.203 128.456 216.557 128.724 217.175 127.911C217.481 127.511 217.372 127.162 217.546 125.614C217.663 124.604 217.815 123.783 217.939 123.238" stroke="#39723B" stroke-width="0.5" stroke-linecap="round" stroke-linejoin="round"/>
<path d="M207.475 124.655C208.625 124.866 209.607 125.026 210.342 125.135C212.62 125.484 213.406 125.534 213.74 125.084C213.871 124.909 213.857 124.779 213.915 124.067C213.995 123.194 214.097 122.482 214.177 122.01" stroke="#39723B" stroke-width="0.5" stroke-linecap="round" stroke-linejoin="round"/>
<path d="M205.699 120.121C206.332 120.222 206.878 120.288 207.286 120.339C208.545 120.491 208.981 120.491 209.192 120.157C209.272 120.033 209.272 119.939 209.338 119.43C209.418 118.813 209.505 118.304 209.571 117.97" stroke="#39723B" stroke-width="0.5" stroke-linecap="round" stroke-linejoin="round"/>
<path d="M241.728 111.677C244.646 110.063 246.13 109.228 247.608 107.942C250.919 105.057 253 101.46 252.505 100.973C252.112 100.588 250.329 102.346 249.631 101.83C248.597 101.06 251.741 95.8786 251.079 95.4499C250.62 95.152 248.626 97.3102 248.59 97.2739C248.554 97.2303 251.093 94.9848 250.715 94.3672C250.475 93.9748 249.238 94.607 248.932 94.1782C248.284 93.2844 252.359 89.9272 251.581 88.5683C251.21 87.9288 250.169 88.452 249.34 87.7689C247.447 86.2211 249.842 81.0908 249.019 80.6765C248.081 80.2115 243.94 86.3228 243.845 86.2574C243.736 86.1848 249.165 78.9325 247.804 77.4646C247.266 76.8833 246.159 77.748 245.075 77.094C242.936 75.8078 244.267 70.6847 243.496 70.474C242.565 70.2124 239.792 77.2248 239.872 77.2612C239.959 77.2975 242.899 70.6993 242.383 70.4086C242.15 70.2778 241.531 71.5713 240.796 71.4768C239.363 71.2879 239.508 66.0776 238.213 65.8668C236.91 65.6488 235.266 70.692 234.611 70.5031C233.781 70.2633 235.957 62.0663 234.451 61.4414C233.33 60.9763 230.863 65.0384 230.012 64.5661C229.342 64.1955 230.754 61.6376 229.983 58.2295C229.932 57.9969 229.204 54.894 228.054 54.8431C226.424 54.7705 225.063 60.8891 224.474 60.7438C224.096 60.6493 224.736 58.2004 224.307 54.9449C223.986 52.525 222.997 49.0661 221.781 49.0225C220.29 48.9716 218.849 54.0874 218.587 53.9929C218.456 53.9421 219.162 52.6849 218.74 51.3769C218.354 50.1924 217.423 50.1125 216.52 48.9861C214.941 47.0023 215.72 44.6115 215.108 44.4734C214.133 44.2554 212.132 50.3014 211.601 50.1415C211.259 50.0398 212.161 47.5764 211.666 44.4371C211.215 41.5885 209.731 38.9289 208.945 39.067C208.45 39.1542 208.515 40.3096 207.73 43.3616C207.089 45.8323 206.332 47.838 206.15 47.7944C205.939 47.7435 207.278 45.0766 206.347 42.119C205.91 40.7383 205.459 40.8037 203.829 37.4247C203.305 36.3347 202.956 35.5062 202.759 35.5571C202.497 35.6298 202.854 37.2139 202.745 39.8082C202.694 40.9781 202.556 42.3079 202.41 42.3079C202.214 42.3079 202.738 39.9753 201.631 37.7299C200.394 35.2156 198.459 35.5135 197.091 32.6431C196.53 31.4586 196.276 30.1797 195.839 30.2088C195.373 30.2451 195.417 31.7711 194.682 32.0037C193.67 32.3307 192.222 29.8672 191.829 30.0852C191.342 30.3614 193.983 33.9221 192.79 36.7779C192.186 38.2313 191.051 38.3694 191.058 39.4739C191.058 41.4359 194.638 42.7948 194.391 43.3326C194.187 43.7758 191.786 42.7585 191.276 43.5142C191.153 43.6959 191.131 43.9866 192.04 45.9995C192.863 47.8234 193.154 48.194 192.972 48.4992C192.499 49.3131 189.828 47.8234 189.035 48.6955C187.805 50.0398 192.433 55.4536 191.145 56.8488C190.505 57.5391 188.991 56.6162 188.526 57.2557C187.565 58.5565 193.168 63.4761 192.077 65.1547C191.545 65.9686 189.879 65.3582 189.573 66.0849C189.064 67.2911 193.503 69.195 193.452 72.1962C193.43 73.526 192.55 73.7004 192.717 74.8995C193.037 77.2539 196.683 78.2131 196.414 79.1723C196.225 79.8627 194.311 79.4194 193.845 80.3423C193.35 81.3233 195.235 82.406 196.13 84.9785C197.149 87.8925 195.577 88.9389 196.698 90.8718C198.037 93.1827 200.904 92.7685 201.34 94.6651C201.704 96.2275 199.892 97.1285 200.322 98.3639C201.057 100.493 207.213 100.188 207.206 100.508C207.198 100.747 203.887 100.9 203.887 101.009C203.887 101.133 208.123 100.609 208.763 102.048C209.178 102.993 207.686 103.93 208.05 104.853C208.734 106.583 214.723 105.151 215.312 106.699C215.727 107.803 213.02 109.38 213.42 110.201C214.01 111.408 220.421 109.235 220.755 110.092C220.93 110.543 219.3 111.379 219.475 111.807C219.817 112.658 226.512 110.361 227.035 111.488C227.305 112.062 225.74 113.065 225.988 113.537C226.519 114.547 234.138 111.015 234.887 112.258C235.309 112.948 233.257 114.562 233.621 115.07C234.189 115.862 239.712 112.803 241.728 111.684L241.728 111.677Z" stroke="#39723B" stroke-width="0.5" stroke-miterlimit="10"/>
<path d="M242.419 111.575C241.553 110.696 240.272 109.337 238.839 107.578C233.694 101.256 231.256 95.4572 230.521 93.7785C226.482 84.6442 220.108 78.809 213.238 69.2459C207.591 61.3832 200.467 49.4221 194.747 31.9673" stroke="#39723B" stroke-width="0.5" stroke-miterlimit="10"/>
<path d="M217.081 103.967C223.921 104.701 229.037 106.198 232.493 107.469C235.062 108.414 238.169 110.514 240.483 109.199C241.502 108.617 242.143 107.506 243.431 105.275C244.398 103.589 245.053 102.106 245.475 101.038" stroke="#39723B" stroke-width="0.5" stroke-linecap="round" stroke-linejoin="round"/>
<path d="M206.573 93.7059C213.493 95.0066 218.9 96.8379 222.735 98.3857C228.163 100.573 232.333 102.927 234.946 101.082C235.913 100.399 235.921 99.6646 238.249 95.6098C239.428 93.5606 240.476 91.9255 241.197 90.8282" stroke="#39723B" stroke-width="0.5" stroke-linecap="round" stroke-linejoin="round"/>
<path d="M199.084 84.9494C211.637 85.8432 218.922 88.5828 223.346 91.1044C224.743 91.9037 228.833 94.3672 231.336 92.8339C232.581 92.0709 232.792 90.712 233.818 88.0669C234.545 86.1993 235.739 83.5324 237.725 80.444" stroke="#39723B" stroke-width="0.5" stroke-linecap="round" stroke-linejoin="round"/>
<path d="M203.363 80.4077C208.334 80.88 212.198 81.9991 214.927 83.0019C220.835 85.182 224.103 87.8416 226.504 86.3446C227.45 85.756 227.414 85.0512 229.473 80.96C230.579 78.7654 231.562 77.0286 232.217 75.9241" stroke="#39723B" stroke-width="0.5" stroke-linecap="round" stroke-linejoin="round"/>
<path d="M197.061 73.279C202.992 74.2963 207.555 75.6988 210.633 76.7888C215.232 78.4239 218.027 79.9208 220.741 78.5765C222.284 77.8134 223.186 76.44 224.903 73.8312C226.424 71.5204 227.385 69.413 227.974 67.8943" stroke="#39723B" stroke-width="0.5" stroke-linecap="round" stroke-linejoin="round"/>
<path d="M193.197 67.4219C200.038 68.1559 205.153 69.6528 208.61 70.9245C211.179 71.8692 214.286 73.9693 216.6 72.654C217.619 72.0727 218.259 70.9608 219.547 68.7299C220.515 67.044 221.17 65.5616 221.592 64.4934" stroke="#39723B" stroke-width="0.5" stroke-linecap="round" stroke-linejoin="round"/>
<path d="M199.339 63.011C200.773 63.2144 202.883 63.6214 205.328 64.4934C208.901 65.7723 210.182 66.9786 211.666 66.3464C212.714 65.8959 212.845 64.9585 214.584 61.4268C215.531 59.5011 216.375 57.9751 216.935 57.0013" stroke="#39723B" stroke-width="0.5" stroke-linecap="round" stroke-linejoin="round"/>
<path d="M195.388 56.6453C198.284 57.1176 200.504 57.8443 202.032 58.4329C204.368 59.334 205.91 60.2496 207.016 59.5302C207.562 59.1741 207.584 58.7018 208.472 56.8778C209.054 55.6933 209.6 54.7632 209.985 54.1382" stroke="#39723B" stroke-width="0.5" stroke-linecap="round" stroke-linejoin="round"/>
<path d="M196.574 51.3333C197.891 52.089 199.019 52.7067 199.87 53.1718C202.505 54.5961 203.436 54.9885 204.047 54.5888C204.28 54.4362 204.317 54.2618 204.71 53.4261C205.183 52.3942 205.626 51.5731 205.932 51.0281" stroke="#39723B" stroke-width="0.5" stroke-linecap="round" stroke-linejoin="round"/>
<path d="M196.377 45.0112C197.112 45.4109 197.738 45.7306 198.219 45.9704C199.696 46.7044 200.227 46.8933 200.627 46.5808C200.78 46.4646 200.816 46.341 201.115 45.7597C201.486 45.033 201.813 44.4589 202.039 44.0738" stroke="#39723B" stroke-width="0.5" stroke-linecap="round" stroke-linejoin="round"/>
<path d="M237.012 200.905C235.848 197.185 235.244 195.288 234.116 193.29C231.591 188.813 227.952 185.58 227.276 186.038C226.744 186.401 228.331 188.857 227.574 189.526C226.446 190.528 221.243 185.696 220.595 186.357C220.151 186.815 222.153 189.606 222.102 189.642C222.043 189.678 220.071 186.234 219.271 186.517C218.762 186.699 219.198 188.261 218.631 188.516C217.444 189.046 214.563 183.581 212.823 184.155C212.001 184.424 212.35 185.74 211.375 186.532C209.149 188.327 203.829 184.373 203.16 185.216C202.403 186.176 208.435 192.367 208.334 192.461C208.224 192.57 201.188 184.642 199.172 185.849C198.371 186.328 199.106 187.796 198.095 188.886C196.115 191.03 190.549 188.29 190.119 189.119C189.595 190.122 196.989 194.961 197.054 194.874C197.12 194.787 190.236 189.853 189.784 190.376C189.581 190.608 190.92 191.626 190.629 192.447C190.068 194.046 184.13 192.643 183.577 194.075C183.017 195.513 188.416 198.587 188.045 199.299C187.572 200.193 178.68 195.761 177.61 197.33C176.81 198.507 180.885 202.286 180.142 203.158C179.56 203.841 176.955 201.618 172.858 201.69C172.574 201.69 168.848 201.785 168.514 203.093C168.041 204.946 174.743 207.947 174.437 208.594C174.241 209.008 171.585 207.685 167.742 207.409C164.89 207.198 160.684 207.511 160.349 208.892C159.934 210.585 165.472 213.448 165.297 213.724C165.21 213.869 163.937 212.758 162.336 212.932C160.887 213.092 160.567 214.145 159.061 214.901C156.412 216.238 153.843 214.778 153.545 215.446C153.065 216.507 159.527 220.235 159.221 220.802C159.025 221.165 156.412 219.552 152.686 219.378C149.31 219.218 145.897 220.293 145.875 221.223C145.86 221.812 147.199 222.008 150.518 223.636C153.203 224.951 155.321 226.296 155.233 226.492C155.124 226.717 152.381 224.559 148.764 224.922C147.083 225.089 147.039 225.627 142.775 226.695C141.4 227.037 140.366 227.24 140.381 227.48C140.403 227.8 142.302 227.763 145.264 228.505C146.595 228.839 148.094 229.319 148.058 229.486C148.014 229.704 145.46 228.556 142.615 229.289C139.435 230.111 139.318 232.4 135.702 233.279C134.21 233.642 132.682 233.635 132.609 234.136C132.536 234.681 134.305 234.987 134.399 235.888C134.53 237.123 131.357 238.199 131.517 238.7C131.714 239.318 136.437 237.145 139.428 239.18C140.956 240.219 140.839 241.541 142.113 241.803C144.369 242.261 146.77 238.496 147.33 238.903C147.789 239.245 146.057 241.745 146.799 242.508C146.981 242.689 147.309 242.784 149.834 242.224C152.126 241.716 152.621 241.469 152.926 241.752C153.749 242.486 151.405 245.189 152.221 246.308C153.472 248.03 160.786 244.019 162.081 245.821C162.721 246.715 161.302 248.234 161.921 248.917C163.187 250.32 170.158 245.08 171.825 246.722C172.633 247.522 171.541 249.288 172.305 249.811C173.564 250.683 176.81 246.047 180.244 246.817C181.758 247.158 181.758 248.205 183.17 248.299C185.949 248.488 187.914 244.542 188.955 245.08C189.704 245.465 188.744 247.544 189.683 248.292C190.694 249.091 192.382 247.195 195.548 246.773C199.135 246.301 199.965 248.35 202.454 247.522C205.423 246.534 205.627 243.162 207.911 243.104C209.796 243.06 210.393 245.342 211.921 245.146C214.541 244.804 215.647 237.683 216.018 237.777C216.287 237.842 215.683 241.672 215.807 241.694C215.945 241.723 216.353 236.752 218.15 236.36C219.329 236.106 220.057 238.039 221.199 237.842C223.346 237.472 223.12 230.27 225.034 229.965C226.395 229.747 227.567 233.228 228.607 232.959C230.128 232.567 229.153 224.719 230.223 224.544C230.776 224.45 231.351 226.514 231.889 226.419C232.944 226.23 231.904 218.019 233.316 217.684C234.036 217.51 234.815 219.537 235.419 219.37C236.699 219 234.458 209.444 236.066 208.877C236.961 208.565 238.329 211.29 238.999 210.992C240.039 210.527 237.835 203.478 237.034 200.913L237.012 200.905Z" stroke="#39723B" stroke-width="0.5" stroke-miterlimit="10"/>
<path d="M237.056 200.092C235.848 200.869 233.978 202.017 231.613 203.245C223.142 207.634 215.902 209.044 213.799 209.502C202.359 211.958 194.143 217.873 181.54 223.469C171.177 228.069 155.757 233.388 134.363 235.801" stroke="#39723B" stroke-width="0.5" stroke-miterlimit="10"/>
<path d="M222.313 227.298C224.78 219.646 227.712 214.146 229.983 210.483C231.671 207.758 234.822 204.706 233.861 201.748C233.439 200.448 232.311 199.445 230.055 197.446C228.353 195.935 226.803 194.838 225.675 194.104" stroke="#39723B" stroke-width="0.5" stroke-linecap="round" stroke-linejoin="round"/>
<path d="M208.042 236.898C211.179 229.282 214.563 223.534 217.248 219.508C221.046 213.811 224.736 209.596 223.237 206.167C222.677 204.895 221.84 204.713 217.743 201.087C215.676 199.256 214.039 197.664 212.954 196.582" stroke="#39723B" stroke-width="0.5" stroke-linecap="round" stroke-linejoin="round"/>
<path d="M196.225 243.387C200.227 229.231 205.103 221.543 209.039 217.074C210.284 215.664 214.09 211.566 212.918 208.339C212.336 206.733 210.822 206.174 208.035 204.372C206.063 203.1 203.283 201.094 200.212 198.093" stroke="#39723B" stroke-width="0.5" stroke-linecap="round" stroke-linejoin="round"/>
<path d="M192.026 237.414C193.743 231.833 195.941 227.676 197.746 224.791C201.646 218.549 205.474 215.432 204.331 212.329C203.88 211.108 203.058 210.984 198.852 207.656C196.596 205.876 194.835 204.328 193.721 203.325" stroke="#39723B" stroke-width="0.5" stroke-linecap="round" stroke-linejoin="round"/>
<path d="M182.347 242.937C184.916 236.382 187.609 231.499 189.595 228.236C192.564 223.36 194.944 220.511 194.042 217.089C193.532 215.148 192.164 213.782 189.581 211.203C187.288 208.913 185.098 207.315 183.497 206.276" stroke="#39723B" stroke-width="0.5" stroke-linecap="round" stroke-linejoin="round"/>
<path d="M174.699 245.967C177.166 238.315 180.099 232.814 182.369 229.151C184.057 226.426 187.208 223.374 186.248 220.417C185.826 219.116 184.698 218.113 182.442 216.115C180.739 214.603 179.189 213.506 178.061 212.772" stroke="#39723B" stroke-width="0.5" stroke-linecap="round" stroke-linejoin="round"/>
<path d="M171.09 237.901C171.665 236.309 172.625 233.991 174.212 231.397C176.526 227.611 178.214 226.426 177.836 224.581C177.566 223.273 176.526 222.902 172.873 220.075C170.886 218.535 169.336 217.205 168.354 216.34" stroke="#39723B" stroke-width="0.5" stroke-linecap="round" stroke-linejoin="round"/>
<path d="M162.852 240.909C164.082 237.712 165.443 235.335 166.476 233.729C168.063 231.273 169.474 229.718 168.914 228.279C168.637 227.567 168.092 227.436 166.221 225.983C164.999 225.038 164.06 224.188 163.442 223.607" stroke="#39723B" stroke-width="0.5" stroke-linecap="round" stroke-linejoin="round"/>
<path d="M157.038 238.293C158.217 236.963 159.199 235.822 159.927 234.95C162.183 232.269 162.86 231.295 162.547 230.503C162.43 230.198 162.241 230.111 161.368 229.471C160.291 228.679 159.454 227.989 158.908 227.509" stroke="#39723B" stroke-width="0.5" stroke-linecap="round" stroke-linejoin="round"/>
<path d="M149.739 237.021C150.372 236.273 150.889 235.633 151.275 235.139C152.468 233.621 152.81 233.061 152.541 232.523C152.439 232.32 152.315 232.247 151.711 231.767C150.969 231.172 150.387 230.663 149.994 230.307" stroke="#39723B" stroke-width="0.5" stroke-linecap="round" stroke-linejoin="round"/>
<path d="M133.839 108.501C131.43 106.881 126.838 105.711 117.647 103.371C117.647 103.371 116.046 102.964 104.847 100.37C104.847 100.37 105.022 109.199 105.364 112.498C106.354 121.952 113.892 134.661 125.434 137.212C130.79 138.397 139.253 137.888 142.731 132.678C147.294 125.84 141.443 113.61 133.839 108.501Z" stroke="#39723B" stroke-width="0.5" stroke-miterlimit="10"/>
<path d="M141.363 134.305C140.89 135.672 135.658 149.944 121.664 153.744C115.952 155.299 107.918 155.328 102.708 152.305C99.142 150.234 97.7812 149.086 97.7812 149.086C95.6199 147.611 93.4077 146.034 90.0385 144.661C89.9802 144.639 89.9293 144.617 89.9002 144.602C91.9305 142.335 96.1948 138.186 102.97 135.599C108.937 133.324 114.184 133.274 117.138 133.462" stroke="#39723B" stroke-width="0.5" stroke-miterlimit="10"/>
<path d="M143.648 131.399C147.956 123.427 147.963 117.643 147.185 113.849C146.865 112.294 144.762 108.087 140.548 99.6792C140.213 99.0034 134.516 87.6381 136.844 83.576C136.939 83.4089 137.23 82.9438 137.128 82.8566C136.801 82.5659 132.289 86.2792 129.494 90.3123C124.728 97.1939 126.365 105.086 125.106 105.151C124.306 105.195 124.117 102.077 122.392 98.9162C119.227 93.11 112.903 90.8791 109.534 89.6946C108.646 89.3822 91.4284 83.5033 86.2617 90.6902C81.2697 97.6372 90.6789 112.389 91.9669 114.402C92.3526 115.005 92.8547 116.168 93.9681 117.258C96.1221 119.365 98.7127 119.815 100.139 120.164C102.613 120.775 106.092 122.206 110.145 125.92" stroke="#39723B" stroke-width="0.5" stroke-miterlimit="10"/>
<path d="M102.948 87.7689C99.2148 84.746 98.1815 82.0282 97.9995 80.0153C97.2937 72.2689 107.998 63.447 107.998 63.447C109.221 67.858 111.091 70.801 112.59 72.6831C117.153 78.4093 121.948 78.9398 125.274 84.5134C127.137 87.6381 127.617 90.8137 127.733 93.001" stroke="#39723B" stroke-width="0.5" stroke-miterlimit="10"/>
<path d="M105.968 153.911C102.671 156.207 97.2645 159.201 90.1695 159.972C85.5777 160.473 82.907 160.764 79.887 159.354C74.9823 157.072 73.3668 152.283 67.3851 151.07C66.2863 150.845 65.3694 150.808 64.8236 150.808C66.4755 149.297 68.9497 147.189 72.1734 144.958C76.3795 142.052 78.4753 140.606 81.4952 140.032C83.1471 139.719 87.2004 139.261 92.4763 142.045" stroke="#39723B" stroke-width="0.5" stroke-miterlimit="10"/>
<path d="M95.4016 118.653C89.2089 117.163 84.5298 117.643 81.2478 118.464C81.2478 118.464 78.9847 119.031 70.7981 122.213C71.4457 124.684 72.6828 128.259 75.157 132.06C77.5802 135.788 80.2946 138.331 82.2666 139.923" stroke="#39723B" stroke-width="0.5" stroke-miterlimit="10"/>
<path d="M101.18 70.8373C96.9589 68.6355 93.3277 67.6181 90.7444 67.0949C84.9591 65.925 82.9143 66.9351 78.0241 64.8931C78.0241 64.8931 76.9035 64.428 71.2929 61.6158C71.8241 63.3089 72.5737 65.9904 73.134 69.3476C74.342 76.6144 73.4105 79.6737 74.291 83.5542C75.0697 86.9841 77.4274 91.7366 84.8791 96.6053" stroke="#39723B" stroke-width="0.5" stroke-miterlimit="10"/>
<path d="M80.2363 93.0591C74.9387 90.4068 70.4051 89.6001 67.5307 89.3313C64.1323 89.0115 59.6933 88.5973 58.2234 90.9227C57.3647 92.2816 57.8595 94.0329 58.791 97.3465C59.5551 100.043 60.5156 102.143 61.7018 104.439C64.2269 109.337 65.4858 111.786 67.3633 113.908C68.8842 115.63 71.5549 118.166 75.8265 120.23" stroke="#39723B" stroke-width="0.5" stroke-miterlimit="10"/>
<path d="M69.1825 147.4C64.0086 146.063 61.0905 143.767 59.3804 141.899C56.637 138.905 56.9135 136.951 51.7541 127.751C51.1865 126.733 48.6978 122.33 48.6978 122.33C50.7571 120.935 55.6036 118.064 62.444 117.65C68.7605 117.265 73.5851 119.176 75.8337 120.237" stroke="#39723B" stroke-width="0.5" stroke-miterlimit="10"/>
<path d="M56.4114 137.27C46.5074 136.493 40.4165 133.215 36.5597 130.062C30.1414 124.8 23.432 114.54 19.7207 115.724C19.5606 115.775 19.3423 115.87 19.3423 115.87C19.3423 115.877 32.9212 108.646 47.0895 107.716C54.3884 107.237 60.552 108.516 64.8891 109.802" stroke="#39723B" stroke-width="0.5" stroke-miterlimit="10"/>
<path d="M62.233 89.106C60.1736 87.7616 56.7243 85.9159 52.1252 85.1819C48.3484 84.5861 44.1642 83.9175 40.3801 86.0249C39.143 86.7152 35.701 88.9461 33.4233 88.9025C33.3141 88.9025 31.2402 88.8589 31.2402 88.8589C31.5895 89.0551 32.1134 89.3821 32.6447 89.8908C35.0825 92.1798 35.1916 95.6098 35.3153 96.6489C35.6282 99.2722 37.935 103.015 47.0968 107.709" stroke="#39723B" stroke-width="0.5" stroke-miterlimit="10"/>
<path d="M73.7234 74.26C70.0412 68.6791 66.7811 67.3202 64.4088 67.1894C60.5738 66.9787 54.483 69.6965 51.2447 69.0352C51.0628 68.9989 48.5959 68.4756 48.5959 68.4756C48.2975 69.9581 47.679 74.0783 49.7093 78.591C52.067 83.8449 56.4259 86.1049 57.6776 86.7007" stroke="#39723B" stroke-width="0.5" stroke-miterlimit="10"/>
<path d="M48.3194 72.5886C47.73 71.3024 46.4201 68.9698 43.8877 67.9088C41.2607 66.8043 38.6919 67.6472 34.8497 68.9044C30.0177 70.4885 25.8553 72.7049 25.9208 72.8575C25.9353 72.8866 26.11 72.8357 26.2482 72.7921C27.2306 73.715 28.6424 75.2337 29.7558 77.4356C30.9637 79.8191 30.8546 81.069 31.8224 82.7331C32.6738 84.1791 34.4058 86.0322 38.3645 87.2457" stroke="#39723B" stroke-width="0.5" stroke-miterlimit="10"/>
<path d="M29.6539 77.2612C27.66 73.9475 25.2513 72.2398 23.9123 71.4405C17.1229 67.3856 8.01932 68.9116 5.85077 71.9637C5.58152 72.3416 5.06485 73.2499 3.95146 74.0347C2.48151 75.0739 0.407563 75.5826 0.407563 75.5826C1.16437 75.7424 2.27047 76.0694 3.33291 76.8542C5.79982 78.6637 6.07636 81.4323 7.34984 84.6297C8.09937 86.4973 9.40194 89.0697 11.8616 91.8674" stroke="#39723B" stroke-width="0.5" stroke-miterlimit="10"/>
<path d="M24.9238 113.399C15.4782 108.697 13.2805 102.855 12.6911 100.856C11.7888 97.8044 11.1848 92.0418 11.8615 91.8674C11.9416 91.8456 12.0071 91.9183 12.1308 91.9982C13.2296 92.6958 14.9834 91.6785 15.973 91.3006C17.2392 90.821 18.469 91.0463 20.9214 91.4968C24.2543 92.1072 25.0038 93.4516 28.2639 94.716C29.7921 95.3046 32.0843 95.9659 35.1771 96.0386" stroke="#39723B" stroke-width="0.5" stroke-miterlimit="10"/>
<path d="M30.9928 80.4513C27.3397 78.7145 24.5017 78.5547 22.5005 78.7945C22.5005 78.7945 21.9111 78.8672 16.8463 79.9426C17.1374 81.5777 17.7777 84.0411 19.3278 86.6789C21.1543 89.7964 23.4174 91.7439 24.8437 92.7976" stroke="#39723B" stroke-width="0.5" stroke-miterlimit="10"/>
<path d="M167.822 69.6746C167.502 68.0033 166.083 65.6125 163.252 60.8237C163.252 60.8237 162.758 59.988 159.199 54.269C159.199 54.269 155.59 57.9969 154.36 59.5084C150.831 63.8394 148.662 72.2253 152.381 78.075C154.105 80.7855 157.824 84.0919 161.433 83.3798C166.171 82.4424 168.841 74.9503 167.822 69.6746Z" stroke="#39723B" stroke-width="0.5" stroke-miterlimit="10"/>
<path d="M160.189 83.4815C159.425 83.8521 151.311 87.5872 143.932 83.3507C140.919 81.6212 137.579 78.3003 136.684 74.8849C136.066 72.545 135.985 71.5059 135.985 71.5059C135.702 69.9944 135.447 68.4247 134.625 66.4554C134.61 66.4191 134.596 66.39 134.588 66.3755C136.371 66.281 139.864 66.3319 143.75 68.0759C147.17 69.6092 149.361 71.7675 150.51 73.0755" stroke="#39723B" stroke-width="0.5" stroke-miterlimit="10"/>
<path d="M162.35 83.2272C167.459 81.7157 169.867 79.3249 171.126 77.4283C171.643 76.6507 172.523 74.0347 174.277 68.8026C174.415 68.3811 176.795 61.3106 179.451 60.5984C179.56 60.5694 179.873 60.4967 179.866 60.4168C179.851 60.1624 176.438 59.8281 173.6 60.3368C168.761 61.2088 166.156 65.1547 165.603 64.6606C165.254 64.3481 166.476 62.9747 167.073 60.9545C168.179 57.2339 166.491 53.6877 165.588 51.7984C165.348 51.2969 160.669 41.7121 155.539 42.5405C150.576 43.3398 148.335 53.3607 148.029 54.7269C147.934 55.1338 147.658 55.8242 147.665 56.7398C147.68 58.5056 148.567 59.77 149.011 60.5112C149.783 61.7902 150.627 63.8321 150.758 67.0513" stroke="#39723B" stroke-width="0.5" stroke-miterlimit="10"/>
<path d="M163.667 48.2594C163.383 45.4544 164.082 43.9066 164.846 42.991C167.779 39.4884 175.885 40.2805 175.885 40.2805C174.554 42.6131 174.102 44.6115 173.942 46.014C173.448 50.2796 175.209 52.496 174.27 56.1802C173.739 58.2512 172.618 59.7627 171.752 60.722" stroke="#39723B" stroke-width="0.5" stroke-miterlimit="10"/>
<path d="M137.368 76.9051C135.047 76.4909 131.561 75.4808 128.301 72.8575C126.191 71.1571 124.961 70.1688 124.299 68.3303C123.222 65.3509 124.539 62.6913 122.574 59.7119C122.21 59.1596 121.846 58.7672 121.621 58.5419C122.931 58.6001 124.837 58.7527 127.1 59.1741C130.047 59.7191 131.525 59.988 133.016 61.0054C133.832 61.5649 135.702 63.0546 136.728 66.3973" stroke="#39723B" stroke-width="0.5" stroke-miterlimit="10"/>
<path d="M147.68 57.917C145.737 54.7269 143.597 52.9828 141.894 51.9582C141.894 51.9582 140.723 51.2534 136.007 49.1678C135.243 50.4613 134.268 52.4524 133.708 55.0539C133.162 57.6045 133.22 59.7846 133.38 61.2597" stroke="#39723B" stroke-width="0.5" stroke-miterlimit="10"/>
<path d="M169.984 40.513C169.154 37.8461 168.077 35.9204 167.226 34.6269C165.319 31.7348 164.053 31.306 162.874 28.4356C162.874 28.4356 162.605 27.7816 161.455 24.2863C160.967 25.2092 160.167 26.6335 158.995 28.254C156.47 31.7638 154.804 32.6431 153.559 34.6197C152.453 36.3637 151.449 39.3068 152.504 44.4226" stroke="#39723B" stroke-width="0.5" stroke-miterlimit="10"/>
<path d="M152.06 41.0217C150.976 37.7226 149.426 35.5063 148.349 34.1982C147.076 32.6504 145.409 30.6375 143.83 30.9936C142.906 31.1971 142.382 32.1272 141.392 33.893C140.585 35.3246 140.112 36.5963 139.646 38.0424C138.649 41.1162 138.154 42.6568 138.045 44.3136C137.958 45.6579 138.009 47.8162 138.918 50.4468" stroke="#39723B" stroke-width="0.5" stroke-miterlimit="10"/>
<path d="M124.852 58.9271C123.265 56.2238 123.011 54.0583 123.083 52.5759C123.193 50.1997 124.124 49.5021 125.82 43.5506C126.009 42.8893 126.809 40.0334 126.809 40.0334C128.243 40.3096 131.445 41.1307 134.45 43.8049C137.223 46.2683 138.431 49.0661 138.918 50.4322" stroke="#39723B" stroke-width="0.5" stroke-miterlimit="10"/>
<path d="M123.782 49.4294C120.005 44.9966 118.848 41.1089 118.564 38.2022C118.099 33.3625 119.59 26.321 117.567 25.2746C117.48 25.231 117.349 25.1801 117.349 25.1801C117.349 25.1801 125.98 27.8325 132.238 33.3262C135.462 36.1602 137.485 39.2486 138.736 41.5812" stroke="#39723B" stroke-width="0.5" stroke-miterlimit="10"/>
<path d="M146.253 31.9093C145.962 30.4922 145.3 28.2977 143.699 26.0886C142.382 24.2719 140.927 22.259 138.482 21.5614C137.681 21.3288 135.331 20.8274 134.399 19.8609C134.355 19.8101 133.511 18.9381 133.511 18.9381C133.577 19.1633 133.657 19.5194 133.664 19.9481C133.715 21.9102 132.34 23.3708 131.954 23.8577C130.993 25.0712 130.39 27.5783 132.223 33.3263" stroke="#39723B" stroke-width="0.5" stroke-miterlimit="10"/>
<path d="M157.191 30.5285C157.991 26.6844 157.205 24.7732 156.281 23.7341C154.782 22.0554 151.129 20.653 150.067 19.0325C150.008 18.938 149.201 17.7026 149.201 17.7026C148.466 18.1895 146.486 19.6429 145.446 22.3534C144.238 25.5072 145.096 28.254 145.366 29.017" stroke="#39723B" stroke-width="0.5" stroke-miterlimit="10"/>
<path d="M147.367 19.2868C147.658 18.5092 148.087 16.9978 147.483 15.5081C146.857 13.9602 145.438 13.2408 143.328 12.1726C140.665 10.821 138.016 10.0144 137.987 10.1016C137.987 10.1161 138.074 10.1742 138.147 10.2106C138.169 10.9954 138.118 12.2162 137.666 13.5896C137.172 15.0793 136.604 15.5517 136.32 16.6417C136.066 17.5936 136.015 19.0761 137.15 21.227" stroke="#39723B" stroke-width="0.5" stroke-miterlimit="10"/>
<path d="M120.682 26.4736C118.732 20.6021 120.253 17.2739 120.842 16.1984C121.737 14.5634 123.891 11.9183 124.24 12.129C124.284 12.1508 124.277 12.2089 124.299 12.2961C124.459 13.0446 125.616 13.3498 126.176 13.6041C126.904 13.9312 127.319 14.5343 128.141 15.7406C129.262 17.3756 129.021 18.2476 129.844 20.1225C130.229 21.0017 130.906 22.2226 132.158 23.5378" stroke="#39723B" stroke-width="0.5" stroke-miterlimit="10"/>
<path d="M110.181 174.898C108.682 175.821 106.877 178.073 103.268 182.564C103.268 182.564 102.642 183.349 98.3925 188.893C98.3925 188.893 103.334 191.015 105.255 191.648C110.749 193.472 119.692 192.491 124 186.742C126.001 184.076 127.843 179.265 125.827 176.031C123.178 171.787 114.926 171.962 110.181 174.883L110.181 174.898Z" stroke="#39723B" stroke-width="0.5" stroke-miterlimit="10"/>
<path d="M126.387 177.208C127.028 177.812 133.635 184.286 132.231 192.985C131.656 196.538 129.662 200.985 126.678 203.115C124.633 204.568 123.658 205.033 123.658 205.033C122.297 205.861 120.864 206.683 119.256 208.209C119.227 208.238 119.205 208.259 119.19 208.274C118.441 206.581 117.211 203.18 117.473 198.784C117.706 194.91 118.994 191.996 119.845 190.405" stroke="#39723B" stroke-width="0.5" stroke-miterlimit="10"/>
<path d="M125.347 175.217C122.006 170.836 118.797 169.375 116.498 168.859C115.552 168.648 112.692 168.757 106.972 168.975C106.514 168.99 98.7782 169.295 97.1117 166.984C97.0462 166.89 96.857 166.614 96.7843 166.65C96.5368 166.759 97.4683 170.189 99.0037 172.747C101.623 177.114 106.419 178.182 106.135 178.902C105.961 179.352 104.185 178.676 101.995 178.836C97.9777 179.134 95.1542 182.07 93.6552 183.64C93.2549 184.054 85.6723 192.105 88.3648 196.763C90.9626 201.269 101.514 199.765 102.948 199.554C103.377 199.496 104.149 199.51 105.036 199.169C106.746 198.507 107.649 197.185 108.202 196.48C109.162 195.266 110.829 193.697 113.907 192.389" stroke="#39723B" stroke-width="0.5" stroke-miterlimit="10"/>
<path d="M90.9263 186.786C88.3138 188.094 86.5455 187.985 85.3812 187.578C80.9058 186.03 78.7009 177.892 78.7009 177.892C81.4516 178.32 83.5547 178.03 84.981 177.666C89.3035 176.576 90.8026 174.055 94.7249 173.619C96.9225 173.372 98.8073 173.902 100.052 174.389" stroke="#39723B" stroke-width="0.5" stroke-miterlimit="10"/>
<path d="M128.388 201.712C128.839 204.11 129.138 207.852 127.784 211.973C126.911 214.64 126.402 216.187 124.859 217.51C122.363 219.654 119.299 219.349 117.131 222.35C116.731 222.902 116.483 223.403 116.345 223.701C115.923 222.408 115.37 220.511 114.94 218.164C114.387 215.112 114.104 213.586 114.547 211.769C114.788 210.774 115.552 208.419 118.419 206.196" stroke="#39723B" stroke-width="0.5" stroke-miterlimit="10"/>
<path d="M106.172 198.711C103.792 201.763 102.882 204.473 102.511 206.494C102.511 206.494 102.257 207.889 101.965 213.215C103.501 213.477 105.793 213.688 108.522 213.274C111.2 212.867 113.289 212.009 114.664 211.312" stroke="#39723B" stroke-width="0.5" stroke-miterlimit="10"/>
<path d="M81.0877 183.516C78.81 185.296 77.3328 187.048 76.3941 188.348C74.291 191.255 74.3419 192.636 71.9842 194.838C71.9842 194.838 71.4457 195.339 68.4767 197.737C69.5464 197.868 71.2274 198.122 73.2286 198.66C77.5584 199.815 79.0283 201.102 81.4006 201.588C83.4964 202.017 86.7274 201.908 91.2974 199.009" stroke="#39723B" stroke-width="0.5" stroke-miterlimit="10"/>
<path d="M88.1683 200.68C85.3666 202.947 83.7802 205.251 82.9143 206.777C81.8809 208.579 80.542 210.926 81.4589 212.329C81.9974 213.143 83.0889 213.31 85.1701 213.622C86.8584 213.877 88.2629 213.869 89.8347 213.789C93.1821 213.622 94.8558 213.542 96.5077 213.034C97.8467 212.627 99.9206 211.784 102.14 209.938" stroke="#39723B" stroke-width="0.5" stroke-miterlimit="10"/>
<path d="M115.537 220.431C113.5 222.96 111.491 223.999 110.028 224.479C107.678 225.249 106.659 224.602 100.263 225.147C99.5568 225.206 96.4859 225.482 96.4859 225.482C96.2312 223.992 95.8528 220.591 97.3373 216.703C98.7127 213.114 100.983 210.919 102.133 209.945" stroke="#39723B" stroke-width="0.5" stroke-miterlimit="10"/>
<path d="M106.717 224.951C103.799 230.234 100.452 232.785 97.7376 234.122C93.2112 236.353 85.8324 237.494 85.5558 239.841C85.5413 239.943 85.5413 240.088 85.5413 240.088C85.5413 240.088 84.9373 230.765 87.9791 222.691C89.5436 218.535 91.7995 215.439 93.6042 213.368" stroke="#39723B" stroke-width="0.5" stroke-miterlimit="10"/>
<path d="M81.4516 209.647C80.1854 210.454 78.3007 211.893 76.7361 214.254C75.4554 216.195 74.0364 218.346 74.2547 220.962C74.3274 221.819 74.6986 224.283 74.1091 225.533C74.08 225.591 73.5415 226.732 73.5415 226.732C73.738 226.586 74.0509 226.383 74.4657 226.208C76.3504 225.438 78.2788 226.23 78.8828 226.426C80.4183 226.913 83.0744 226.579 87.9718 222.684" stroke="#39723B" stroke-width="0.5" stroke-miterlimit="10"/>
<path d="M76.103 199.568C72.0788 200.201 70.5143 201.668 69.8448 202.947C68.7678 205.018 68.746 209.066 67.5671 210.694C67.5016 210.788 66.592 212.024 66.592 212.024C67.3415 212.561 69.4737 213.935 72.4863 213.949C75.9939 213.964 78.3371 212.118 78.9847 211.573" stroke="#39723B" stroke-width="0.5" stroke-miterlimit="10"/>
<path d="M68.7969 213.201C67.9309 213.201 66.3154 213.346 65.0929 214.48C63.8194 215.657 63.6448 217.292 63.3828 219.726C63.0481 222.8 63.2373 225.656 63.3319 225.656C63.3537 225.656 63.3683 225.547 63.3828 225.46C64.1396 225.147 65.3403 224.748 66.8394 224.682C68.4622 224.61 69.1316 224.988 70.296 224.864C71.3147 224.755 72.7701 224.261 74.4438 222.379" stroke="#39723B" stroke-width="0.5" stroke-miterlimit="10"/>
<path d="M66.7084 224.704C64.3652 224.98 62.8152 225.881 62.0366 226.419C58.0779 229.159 56.6443 234.58 57.7941 236.542C57.9323 236.781 58.3107 237.297 58.4635 238.111C58.6673 239.187 58.4344 240.459 58.4344 240.459C58.711 240.081 59.1694 239.55 59.8753 239.158C61.4981 238.249 63.099 238.787 65.1948 238.889C66.4173 238.947 68.1711 238.867 70.3396 238.213" stroke="#39723B" stroke-width="0.5" stroke-miterlimit="10"/>
<path d="M85.5704 236.389C80.5929 240.437 76.8016 240.182 75.5427 240.008C73.6216 239.739 70.2741 238.627 70.3469 238.213C70.3542 238.162 70.4124 238.148 70.4852 238.097C71.1474 237.668 71.0237 236.44 71.0673 235.793C71.1183 234.972 71.5549 234.347 72.4208 233.105C73.5997 231.419 74.5312 231.332 76.0521 229.849C76.7652 229.151 77.704 228.047 78.519 226.354" stroke="#39723B" stroke-width="0.5" stroke-miterlimit="10"/>
<path d="M68.8114 224.762C66.934 226.346 66.1335 227.88 65.7624 229.042C65.7624 229.042 65.6532 229.384 64.9765 232.458C65.9589 232.705 67.4798 232.967 69.3354 232.778C71.5258 232.552 73.1704 231.789 74.1164 231.266" stroke="#39723B" stroke-width="0.5" stroke-miterlimit="10"/>
<path d="M345.289 137.791C345.289 137.791 294.67 161.168 285.807 163.58C285.392 163.697 281.099 164.859 275.088 166.625C275.073 166.625 275.059 166.632 275.059 166.632C261.494 170.796 240.289 166.247 236.527 165.375C217.09 160.906 203.948 152.971 194.306 147.143C189.161 144.033 186.534 142.427 183.914 139.774C179.14 134.935 177.336 130.328 170.08 106.093C166.93 95.5561 163.196 82.8464 163.196 82.8464L158.343 85.0774C158.343 85.0774 161.967 99.8289 166.202 112.669C171.972 130.153 176.492 136.846 174.374 138.503C170.546 141.504 150.462 123.78 147.056 127.203C146.445 127.813 146.423 129.049 144.669 131.301C143.228 133.154 142.384 133.431 142.384 134.208C142.384 135.923 146.43 137.158 150.127 138.43C159.594 141.686 164.324 143.306 164.506 145.115C164.768 147.717 156.363 148.218 146.474 154.788C135.013 162.403 126.775 174.699 126.775 174.699C126.775 174.699 128.434 179.48 130.079 179.495C131.076 179.495 131.825 177.765 131.993 177.402C133.892 173.18 139.641 168.783 148.81 161.771C158.35 154.475 163.699 150.384 171.296 150.021C176.812 149.759 180.865 151.583 186.083 154.01C206.567 163.537 214.739 168.071 220.976 170.883C226.652 173.449 244.954 181.617 264.536 178.928C267.41 178.535 270.692 177.852 288.703 169.837C319.885 155.987 345.368 141.958 345.622 141.827L346.342 137.03L345.289 137.791Z" stroke="#39723B" stroke-width="0.5" stroke-miterlimit="10"/>
<path d="M278.164 165.124C278.164 165.124 278.477 165.109 278.615 165.073C279.888 164.768 281.06 158.765 278.819 153.228C278.819 153.228 277.691 150.452 275.078 146.739C275.078 146.739 275.922 146.448 276.526 146.346C276.526 146.346 277.32 146.216 278.258 146.441C279.794 146.804 280.696 150.641 281.933 158.329C282.246 160.277 282.77 163.707 281.46 164.47C281.235 164.601 280.652 164.826 280.027 164.964C279.059 165.175 278.171 165.131 278.164 165.117L278.164 165.124Z" stroke="#39723B" stroke-width="0.5" stroke-miterlimit="10"/>
<path d="M278.164 165.124C277.873 165.807 276.788 165.916 276.723 165.923C274.904 166.09 273.732 163.772 271.644 161.803C270.436 160.669 268.478 159.23 265.327 158.249C262.183 157.777 259.033 157.298 255.882 156.825C255.998 156.6 256.202 156.28 256.515 155.953C259.324 153.068 266.288 155.43 269.963 157.298C274.307 159.499 278.884 163.452 278.164 165.124Z" stroke="#39723B" stroke-width="0.5" stroke-miterlimit="10"/>
<path d="M244.791 127.867C244.035 127.736 245.577 122.722 243.532 117.403C243.532 117.403 243.46 117.207 240.993 112.171C240.993 112.171 241.553 111.938 242.426 111.575C243.947 114.14 244.813 116.429 245.315 118.071C246.953 123.412 246.036 125.861 245.672 126.683C245.526 127.002 245.119 127.925 244.791 127.867Z" stroke="#39723B" stroke-width="0.5" stroke-miterlimit="10"/>
<path d="M237.1 201.741C242.412 201.501 251.421 200.44 261.099 195.601C278.498 186.895 288.504 170.748 287.682 169.934C287.442 169.695 285.732 171.01 282.312 173.641C272.204 181.416 267.343 186.968 263.879 189.925C259.171 193.951 251.064 198.297 236.365 198.537" stroke="#39723B" stroke-width="0.5" stroke-miterlimit="10"/>
</g>
<path d="M126 13.1528C125.416 12.3815 125.289 11.5174 125.382 9.68062C125.477 7.7727 126.7 6.53715 128.518 4.70154C130.812 2.38103 133.286 0.66871 133.348 0.7563C133.354 0.772399 133.283 0.863787 133.22 0.926529C133.481 1.80258 133.974 3.13907 134.941 4.52087C135.995 6.01795 136.758 6.36567 137.448 7.48529C138.057 8.46098 138.409 8.87855 138 11.612" stroke="#39723B" stroke-width="0.5" stroke-miterlimit="10"/>
<defs>
<clipPath id="clip0_166_2320">
<rect width="346" height="240" fill="white" transform="matrix(-1 8.74228e-08 8.74228e-08 1 346 9.99982)"/>
</clipPath>
</defs>
</svg>
