<svg width="346" height="251" viewBox="0 0 346 251" fill="none" xmlns="http://www.w3.org/2000/svg">
<g clip-path="url(#clip0_166_2321)">
<path d="M68.5422 103.988C71.9624 104.046 73.7088 104.082 75.6664 104.533C80.0617 105.55 83.6856 107.803 83.4673 108.486C83.2927 109.024 80.833 108.297 80.4546 109.096C79.8943 110.288 85.2429 113.471 84.8499 114.168C84.5807 114.655 81.7281 113.667 81.7135 113.718C81.699 113.776 85.0828 114.583 85.0391 115.324C85.01 115.796 83.591 115.818 83.5182 116.356C83.3581 117.482 88.6776 118.55 88.6267 120.156C88.6049 120.912 87.4114 120.941 86.9821 121.966C86.0215 124.277 90.6643 127.765 90.1185 128.535C89.4999 129.407 82.7978 125.875 82.7396 125.984C82.6741 126.108 91.0936 130.054 90.5697 132.037C90.3659 132.822 88.9469 132.575 88.2774 133.687C86.9675 135.882 90.6424 139.878 90.053 140.438C89.3326 141.121 83.4382 136.114 83.4964 136.041C83.5546 135.969 89.4054 140.525 89.0779 141.034C88.9323 141.259 87.7462 140.394 87.1276 140.837C85.9197 141.702 88.5685 146.346 87.506 147.16C86.4291 147.981 82.5067 144.209 82.0046 144.703C81.3715 145.321 87.3023 151.687 86.2399 152.98C85.4467 153.94 81.2551 151.454 80.7093 152.29C80.28 152.944 82.7978 154.586 83.7438 158.038C83.8093 158.278 84.6535 161.432 83.6347 162.035C82.1938 162.892 78.0095 158.002 77.5438 158.423C77.2455 158.692 79.0138 160.596 80.1999 163.75C81.0804 166.097 81.8591 169.701 80.7821 170.326C79.4577 171.096 75.6809 167.158 75.4917 167.369C75.3971 167.478 76.6415 168.277 76.8889 169.658C77.1145 170.915 76.3067 171.438 76.0375 172.891C75.5645 175.442 77.4347 177.237 76.9398 177.658C76.1612 178.327 71.4311 173.814 71.0309 174.214C70.7689 174.468 72.7774 176.263 73.8471 179.344C74.8149 182.142 74.7567 185.267 73.9781 185.514C73.4905 185.674 72.9884 184.591 70.798 182.215C69.0224 180.289 67.3706 178.843 67.2323 178.966C67.0649 179.112 69.5682 180.885 70.1577 184.009C70.4342 185.463 69.9903 185.63 70.1504 189.474C70.2013 190.717 70.2886 191.632 70.0849 191.676C69.8084 191.741 69.3717 190.135 68.0182 187.832C67.4069 186.8 66.6356 185.659 66.5046 185.732C66.33 185.826 67.9236 187.679 68.0109 190.252C68.1055 193.122 66.2062 193.791 66.3591 197.039C66.4246 198.376 66.8102 199.662 66.4027 199.844C65.9588 200.04 65.2675 198.63 64.4889 198.776C63.4119 198.972 63.2954 201.893 62.837 201.886C62.2621 201.871 62.9316 197.373 60.472 195.367C59.2203 194.343 58.1288 194.764 57.5975 193.761C56.6515 191.981 59.2349 189.031 58.7473 188.667C58.3471 188.362 56.6734 190.441 55.8438 190.005C55.6473 189.903 55.4872 189.648 55.3344 187.388C55.1961 185.339 55.2834 184.867 54.9705 184.671C54.1482 184.162 52.4527 186.8 51.3102 186.393C49.5492 185.768 51.121 178.639 49.2799 177.993C48.3703 177.673 47.4388 179.242 46.7111 178.886C45.2121 178.167 47.9046 171.024 46.1071 170.028C45.2339 169.549 44.0186 170.9 43.3855 170.391C42.3449 169.549 45.4449 165.683 43.9459 162.987C43.2837 161.795 42.4031 162.057 41.9738 160.901C41.1297 158.612 43.9604 155.989 43.2545 155.248C42.7452 154.717 41.2315 156.032 40.3656 155.429C39.4414 154.782 40.6203 152.893 40.1909 150.132C39.7034 147 37.775 146.811 37.855 144.522C37.9496 141.789 40.744 140.779 40.2273 138.854C39.798 137.262 37.7313 137.32 37.5203 135.998C37.1564 133.716 42.8834 131.027 42.716 130.737C42.5923 130.526 39.5214 131.979 39.4705 131.885C39.4123 131.776 43.4947 130.206 43.3783 128.6C43.2982 127.547 41.4935 127.416 41.3771 126.406C41.1588 124.509 47.2715 122.925 47.0604 121.239C46.9076 120.04 43.6912 119.916 43.6548 118.979C43.6111 117.606 50.4515 116.479 50.3424 115.542C50.2841 115.055 48.4067 115.084 48.3485 114.604C48.2466 113.674 55.4144 112.519 55.3489 111.254C55.3125 110.608 53.4133 110.455 53.4133 109.903C53.4133 108.733 62.0074 108.261 62.0874 106.771C62.1311 105.942 59.4968 105.47 59.5842 104.831C59.7151 103.842 66.1917 103.951 68.5567 103.988L68.5422 103.988Z" stroke="#39723B" stroke-width="0.5" stroke-miterlimit="10"/>
<path d="M69.2189 103.748C68.8623 104.954 68.353 106.807 67.9091 109.096C66.3081 117.293 66.9048 123.724 67.0504 125.592C67.8072 135.802 64.86 144.158 63.2663 156.127C61.9565 165.959 61.287 180.216 64.5471 198.776" stroke="#39723B" stroke-width="0.5" stroke-miterlimit="10"/>
<path d="M49.9567 122.845C55.7929 118.885 59.6933 115.062 62.2185 112.25C64.0886 110.157 65.8861 106.756 68.6149 106.836C69.8157 106.873 70.9363 107.57 73.1776 108.965C74.8659 110.019 76.1758 111.051 77.0781 111.814" stroke="#39723B" stroke-width="0.5" stroke-linecap="round" stroke-linejoin="round"/>
<path d="M45.4085 137.197C51.0482 132.684 55.0506 128.419 57.7795 125.178C61.6363 120.585 64.2705 116.443 67.5307 116.857C68.7386 117.01 69.0952 117.671 73.1631 120.214C75.2152 121.501 76.9544 122.474 78.1405 123.121" stroke="#39723B" stroke-width="0.5" stroke-linecap="round" stroke-linejoin="round"/>
<path d="M42.8616 148.722C53.7844 141.862 59.0529 135.874 61.8473 131.463C62.7278 130.068 65.2384 125.861 68.2438 126.05C69.7356 126.144 70.587 127.27 72.7919 129.167C74.3492 130.511 76.7215 132.343 80.0107 134.181" stroke="#39723B" stroke-width="0.5" stroke-linecap="round" stroke-linejoin="round"/>
<path d="M48.9306 150.771C53.2022 147.952 56.1567 145.074 58.1433 142.85C62.4368 138.033 64.1105 134.05 67.0067 134.247C68.1492 134.326 68.4549 134.98 72.2971 137.691C74.3565 139.144 76.0884 140.242 77.2091 140.925" stroke="#39723B" stroke-width="0.5" stroke-linecap="round" stroke-linejoin="round"/>
<path d="M46.6747 160.262C51.5576 156.483 55.0069 153.017 57.2628 150.539C60.6321 146.84 62.444 144.144 65.544 144.049C67.3051 143.999 68.7896 144.805 71.6058 146.338C74.1018 147.697 75.9865 149.143 77.2527 150.226" stroke="#39723B" stroke-width="0.5" stroke-linecap="round" stroke-linejoin="round"/>
<path d="M46.0125 167.427C51.8487 163.466 55.7492 159.644 58.2743 156.832C60.1445 154.739 61.9419 151.338 64.6708 151.418C65.8715 151.454 66.9922 152.152 69.2335 153.547C70.9217 154.601 72.2316 155.633 73.134 156.396" stroke="#39723B" stroke-width="0.5" stroke-linecap="round" stroke-linejoin="round"/>
<path d="M53.6971 168.459C54.8905 167.587 56.6079 166.199 58.4053 164.229C61.0178 161.352 61.5999 159.637 63.2445 159.499C64.4088 159.397 64.9837 160.182 68.2657 162.551C70.0485 163.837 71.5549 164.811 72.53 165.421" stroke="#39723B" stroke-width="0.5" stroke-linecap="round" stroke-linejoin="round"/>
<path d="M53.1949 176.125C55.5818 174.301 57.2482 172.572 58.3398 171.307C60.0135 169.367 60.9741 167.797 62.3203 167.914C62.9825 167.972 63.2299 168.393 64.9182 169.607C66.017 170.399 66.9631 170.98 67.6107 171.358" stroke="#39723B" stroke-width="0.5" stroke-linecap="round" stroke-linejoin="round"/>
<path d="M56.8335 180.362C57.663 179.039 58.3762 177.942 58.9292 177.106C60.6248 174.548 61.2797 173.741 62.0293 173.807C62.3131 173.836 62.4368 173.967 63.1863 174.541C64.1178 175.246 64.911 175.776 65.4494 176.125" stroke="#39723B" stroke-width="0.5" stroke-linecap="round" stroke-linejoin="round"/>
<path d="M59.7151 186.175C60.1882 185.463 60.6029 184.867 60.9231 184.424C61.9055 183.05 62.2985 182.621 62.8079 182.716C63.0044 182.752 63.0917 182.839 63.652 183.225C64.3361 183.704 64.9109 184.068 65.3039 184.307" stroke="#39723B" stroke-width="0.5" stroke-linecap="round" stroke-linejoin="round"/>
<path d="M90.1185 93.1747C88.4229 95.1004 87.557 96.0887 86.8147 97.404C85.1556 100.354 84.5734 103.508 85.0683 103.726C85.4539 103.9 86.2981 102.171 86.9312 102.367C87.8772 102.658 86.9384 107.236 87.5279 107.374C87.9354 107.468 88.8305 105.39 88.8669 105.405C88.9032 105.426 87.6443 107.716 88.0737 108.064C88.3502 108.29 89.0852 107.512 89.4199 107.745C90.1258 108.224 88.03 111.712 88.9469 112.504C89.3835 112.875 90.0021 112.228 90.7807 112.504C92.5563 113.144 92.1415 117.482 92.8474 117.569C93.6478 117.671 95.0741 112.163 95.1615 112.185C95.2633 112.214 93.1967 118.877 94.5647 119.589C95.1105 119.873 95.6854 118.965 96.646 119.153C98.5307 119.539 98.8873 123.601 99.5058 123.557C100.248 123.506 100.452 117.7 100.379 117.693C100.306 117.693 99.8842 123.237 100.328 123.317C100.532 123.354 100.648 122.249 101.209 122.133C102.3 121.9 103.545 125.723 104.534 125.541C105.538 125.359 105.422 121.275 105.953 121.246C106.623 121.21 107.161 127.721 108.413 127.786C109.352 127.837 110.087 124.247 110.829 124.371C111.411 124.465 111.047 126.689 112.488 128.964C112.59 129.123 113.914 131.187 114.766 130.926C115.974 130.555 115.37 125.766 115.843 125.715C116.141 125.686 116.308 127.627 117.466 129.886C118.324 131.565 119.94 133.818 120.827 133.534C121.926 133.186 121.65 129.102 121.861 129.102C121.97 129.102 121.781 130.199 122.428 131.035C123.011 131.798 123.716 131.616 124.655 132.197C126.314 133.229 126.365 135.169 126.846 135.111C127.61 135.017 127.5 130.112 127.923 130.09C128.199 130.075 128.177 132.096 129.349 134.254C130.411 136.201 132.18 137.756 132.718 137.451C133.053 137.262 132.704 136.434 132.493 134.014C132.318 132.052 132.347 130.402 132.493 130.388C132.66 130.373 132.376 132.655 133.817 134.559C134.486 135.446 134.799 135.286 136.859 137.32C137.521 137.974 137.994 138.49 138.118 138.396C138.292 138.28 137.616 137.219 137.026 135.3C136.757 134.443 136.517 133.433 136.626 133.396C136.764 133.345 136.99 135.169 138.38 136.521C139.93 138.025 141.261 137.313 142.993 139.043C143.706 139.755 144.223 140.62 144.529 140.489C144.863 140.343 144.427 139.246 144.9 138.883C145.547 138.381 147.243 139.798 147.469 139.537C147.752 139.21 144.914 137.306 145.038 134.922C145.104 133.709 145.89 133.316 145.598 132.517C145.089 131.093 142.142 131.027 142.178 130.577C142.215 130.199 144.216 130.322 144.39 129.639C144.434 129.48 144.369 129.262 143.19 128.033C142.12 126.922 141.814 126.725 141.865 126.457C142.004 125.744 144.325 126.137 144.674 125.301C145.22 124.008 140.461 121.268 141.028 119.924C141.312 119.255 142.651 119.539 142.826 118.95C143.182 117.758 137.848 115.629 138.205 114.132C138.38 113.405 139.748 113.42 139.784 112.81C139.842 111.807 136.124 111.567 135.389 109.372C135.061 108.406 135.651 108.043 135.229 107.221C134.385 105.594 131.488 105.833 131.437 105.07C131.401 104.518 132.9 104.351 133.002 103.559C133.111 102.716 131.459 102.418 130.142 100.783C128.65 98.93 129.516 97.76 128.206 96.6482C126.635 95.3184 124.662 96.3576 123.855 95.0931C123.185 94.054 124.27 92.9349 123.636 92.1428C122.552 90.7839 118.157 92.6006 118.084 92.3608C118.026 92.1864 120.391 91.2199 120.362 91.14C120.325 91.0528 117.393 92.5207 116.556 91.6414C116.01 91.0673 116.854 89.9919 116.345 89.4178C115.399 88.3423 111.426 90.922 110.596 89.9555C110.007 89.2652 111.564 87.4194 111.062 86.9253C110.319 86.2059 106.23 89.4323 105.764 88.8946C105.524 88.6112 106.492 87.5866 106.252 87.3177C105.786 86.7872 101.514 90.1808 100.845 89.505C100.503 89.1562 101.376 88.0226 101.07 87.7464C100.423 87.1505 95.8018 91.6777 94.9359 90.9729C94.4556 90.5805 95.5253 88.88 95.1251 88.6039C94.5065 88.1752 91.2901 91.8231 90.1185 93.1529L90.1185 93.1747Z" stroke="#39723B" stroke-width="0.5" stroke-miterlimit="10"/>
<path d="M89.6455 93.429C90.4969 93.8432 91.7849 94.4972 93.284 95.4056C98.6544 98.6684 101.922 102.251 102.897 103.276C108.195 108.864 114.329 111.458 121.795 116.632C127.93 120.883 136.197 127.728 144.871 138.926" stroke="#39723B" stroke-width="0.5" stroke-miterlimit="10"/>
<path d="M110.014 92.4117C104.854 93.647 100.757 93.8723 97.9122 93.8505C95.8019 93.8287 93.0002 93.102 91.6612 94.6571C91.0718 95.3402 90.8899 96.314 90.5333 98.2615C90.2641 99.7366 90.1767 100.979 90.1476 101.866" stroke="#39723B" stroke-width="0.5" stroke-linecap="round" stroke-linejoin="round"/>
<path d="M120.304 97.1569C114.94 97.9998 110.545 98.058 107.358 97.9272C102.846 97.7382 99.2148 97.106 97.7958 99.1189C97.2718 99.8674 97.4537 100.398 96.8134 103.944C96.4859 105.732 96.1512 107.192 95.911 108.173" stroke="#39723B" stroke-width="0.5" stroke-linecap="round" stroke-linejoin="round"/>
<path d="M128.003 101.575C118.659 104.162 112.655 104.053 108.791 103.37C107.569 103.152 103.959 102.418 102.54 104.177C101.834 105.049 102.038 106.095 101.973 108.275C101.929 109.823 101.747 112.061 101.107 114.815" stroke="#39723B" stroke-width="0.5" stroke-linecap="round" stroke-linejoin="round"/>
<path d="M126.067 105.979C122.334 106.916 119.241 107.105 117 107.076C112.146 107.018 109.082 105.928 107.729 107.636C107.198 108.304 107.409 108.813 106.965 112.308C106.732 114.183 106.463 115.702 106.273 116.675" stroke="#39723B" stroke-width="0.5" stroke-linecap="round" stroke-linejoin="round"/>
<path d="M132.493 109.532C127.923 110.324 124.248 110.484 121.73 110.484C117.968 110.484 115.552 110.121 113.929 111.799C113.012 112.751 112.706 113.987 112.131 116.319C111.622 118.39 111.477 120.164 111.433 121.421" stroke="#39723B" stroke-width="0.5" stroke-linecap="round" stroke-linejoin="round"/>
<path d="M136.815 112.788C131.656 114.023 127.559 114.248 124.713 114.227C122.603 114.205 119.801 113.478 118.462 115.033C117.873 115.716 117.691 116.69 117.335 118.638C117.065 120.113 116.978 121.355 116.949 122.242" stroke="#39723B" stroke-width="0.5" stroke-linecap="round" stroke-linejoin="round"/>
<path d="M133.497 117.577C132.405 117.795 130.768 118.049 128.767 118.049C125.841 118.049 124.597 117.497 123.687 118.34C123.04 118.935 123.185 119.655 122.843 122.671C122.654 124.313 122.436 125.635 122.283 126.486" stroke="#39723B" stroke-width="0.5" stroke-linecap="round" stroke-linejoin="round"/>
<path d="M138.009 121.181C135.782 121.581 133.984 121.631 132.725 121.595C130.797 121.544 129.443 121.275 128.825 122.089C128.519 122.489 128.628 122.838 128.454 124.385C128.337 125.396 128.185 126.217 128.061 126.762" stroke="#39723B" stroke-width="0.5" stroke-linecap="round" stroke-linejoin="round"/>
<path d="M138.525 125.345C137.375 125.134 136.393 124.974 135.658 124.865C133.38 124.516 132.594 124.465 132.26 124.916C132.129 125.09 132.143 125.221 132.085 125.933C132.005 126.805 131.903 127.517 131.823 127.99" stroke="#39723B" stroke-width="0.5" stroke-linecap="round" stroke-linejoin="round"/>
<path d="M140.301 129.879C139.668 129.777 139.122 129.712 138.714 129.661C137.455 129.509 137.019 129.509 136.808 129.843C136.728 129.966 136.728 130.061 136.662 130.57C136.582 131.187 136.495 131.696 136.429 132.03" stroke="#39723B" stroke-width="0.5" stroke-linecap="round" stroke-linejoin="round"/>
<path d="M104.272 138.323C101.354 139.936 99.8697 140.772 98.3925 142.058C95.0814 144.943 93.0002 148.54 93.495 149.027C93.888 149.412 95.6709 147.654 96.3695 148.17C97.4028 148.94 94.2591 154.121 94.9213 154.55C95.3798 154.848 97.3737 152.69 97.4101 152.726C97.4465 152.77 94.9068 155.015 95.2852 155.633C95.5253 156.025 96.7624 155.393 97.0681 155.822C97.7157 156.715 93.6406 160.073 94.4192 161.432C94.7904 162.071 95.831 161.548 96.6605 162.231C98.5526 163.779 96.1584 168.909 96.9807 169.323C97.9195 169.788 102.06 163.677 102.155 163.742C102.264 163.815 96.8352 171.067 98.196 172.535C98.7345 173.117 99.8406 172.252 100.925 172.906C103.064 174.192 101.733 179.315 102.504 179.526C103.435 179.787 106.208 172.775 106.128 172.739C106.041 172.702 103.101 179.301 103.617 179.591C103.85 179.722 104.469 178.429 105.204 178.523C106.637 178.712 106.492 183.922 107.787 184.133C109.09 184.351 110.734 179.308 111.389 179.497C112.219 179.737 110.043 187.934 111.549 188.558C112.67 189.024 115.137 184.961 115.988 185.434C116.658 185.804 115.246 188.362 116.017 191.77C116.068 192.003 116.796 195.106 117.946 195.157C119.576 195.229 120.937 189.111 121.526 189.256C121.904 189.351 121.264 191.799 121.693 195.055C122.014 197.475 123.003 200.934 124.219 200.977C125.71 201.028 127.151 195.912 127.413 196.007C127.544 196.058 126.838 197.315 127.26 198.623C127.646 199.807 128.578 199.887 129.48 201.014C131.059 202.998 130.28 205.388 130.892 205.526C131.867 205.744 133.868 199.698 134.399 199.858C134.741 199.96 133.839 202.424 134.334 205.563C134.785 208.411 136.269 211.071 137.055 210.933C137.55 210.846 137.485 209.69 138.27 206.638C138.911 204.168 139.668 202.162 139.85 202.206C140.061 202.256 138.722 204.923 139.653 207.881C140.09 209.262 140.541 209.196 142.171 212.575C142.695 213.665 143.044 214.494 143.241 214.443C143.503 214.37 143.146 212.786 143.255 210.192C143.306 209.022 143.444 207.692 143.59 207.692C143.786 207.692 143.263 210.025 144.369 212.27C145.606 214.784 147.541 214.486 148.909 217.357C149.47 218.541 149.725 219.82 150.161 219.791C150.627 219.755 150.583 218.229 151.318 217.996C152.33 217.669 153.778 220.133 154.171 219.915C154.658 219.639 152.017 216.078 153.21 213.222C153.814 211.769 154.949 211.631 154.942 210.526C154.942 208.564 151.362 207.205 151.609 206.667C151.813 206.224 154.214 207.241 154.724 206.486C154.848 206.304 154.869 206.013 153.96 204C153.137 202.176 152.846 201.806 153.028 201.501C153.501 200.687 156.172 202.176 156.965 201.304C158.195 199.96 153.567 194.546 154.855 193.151C155.495 192.461 157.009 193.384 157.475 192.744C158.435 191.443 152.832 186.524 153.923 184.845C154.455 184.031 156.121 184.642 156.427 183.915C156.936 182.709 152.497 180.805 152.548 177.804C152.57 176.474 153.45 176.299 153.283 175.1C152.963 172.746 149.317 171.787 149.586 170.828C149.775 170.137 151.689 170.58 152.155 169.658C152.65 168.677 150.765 167.594 149.87 165.021C148.851 162.107 150.423 161.061 149.302 159.128C147.963 156.817 145.096 157.231 144.66 155.335C144.296 153.772 146.108 152.871 145.678 151.636C144.944 149.507 138.787 149.812 138.794 149.492C138.802 149.252 142.113 149.1 142.113 148.991C142.113 148.867 137.878 149.391 137.237 147.952C136.822 147.007 138.314 146.07 137.95 145.147C137.266 143.417 131.277 144.849 130.688 143.301C130.273 142.196 132.98 140.62 132.58 139.798C131.99 138.592 125.579 140.765 125.245 139.907C125.07 139.457 126.7 138.621 126.525 138.192C126.183 137.342 119.489 139.639 118.965 138.512C118.695 137.938 120.26 136.935 120.012 136.463C119.481 135.453 111.862 138.985 111.113 137.742C110.691 137.052 112.743 135.438 112.379 134.93C111.811 134.138 106.288 137.197 104.272 138.316L104.272 138.323Z" stroke="#39723B" stroke-width="0.5" stroke-miterlimit="10"/>
<path d="M103.581 138.425C104.447 139.304 105.728 140.663 107.161 142.422C112.306 148.744 114.744 154.543 115.479 156.221C119.518 165.356 125.892 171.191 132.762 180.754C138.409 188.617 145.533 200.578 151.253 218.032" stroke="#39723B" stroke-width="0.5" stroke-miterlimit="10"/>
<path d="M128.92 146.033C122.079 145.299 116.963 143.802 113.507 142.531C110.938 141.586 107.831 139.486 105.517 140.801C104.498 141.382 103.857 142.494 102.569 144.725C101.602 146.411 100.947 147.894 100.525 148.962" stroke="#39723B" stroke-width="0.5" stroke-linecap="round" stroke-linejoin="round"/>
<path d="M139.428 156.294C132.507 154.993 127.1 153.162 123.265 151.614C117.837 149.427 113.667 147.072 111.054 148.918C110.087 149.601 110.079 150.335 107.751 154.39C106.572 156.439 105.524 158.074 104.804 159.172" stroke="#39723B" stroke-width="0.5" stroke-linecap="round" stroke-linejoin="round"/>
<path d="M146.916 165.05C134.363 164.157 127.078 161.417 122.654 158.895C121.257 158.096 117.167 155.633 114.664 157.166C113.42 157.929 113.208 159.288 112.182 161.933C111.455 163.8 110.261 166.467 108.275 169.556" stroke="#39723B" stroke-width="0.5" stroke-linecap="round" stroke-linejoin="round"/>
<path d="M142.637 169.592C137.666 169.12 133.802 168.001 131.074 166.998C125.165 164.818 121.897 162.158 119.496 163.655C118.55 164.244 118.586 164.949 116.527 169.04C115.421 171.234 114.438 172.971 113.783 174.076" stroke="#39723B" stroke-width="0.5" stroke-linecap="round" stroke-linejoin="round"/>
<path d="M148.939 176.721C143.008 175.703 138.445 174.301 135.367 173.211C130.768 171.576 127.974 170.079 125.259 171.423C123.716 172.186 122.814 173.56 121.097 176.169C119.576 178.479 118.615 180.587 118.026 182.106" stroke="#39723B" stroke-width="0.5" stroke-linecap="round" stroke-linejoin="round"/>
<path d="M152.803 182.578C145.962 181.844 140.847 180.347 137.39 179.075C134.821 178.131 131.714 176.031 129.4 177.346C128.381 177.927 127.741 179.039 126.453 181.27C125.485 182.956 124.83 184.438 124.408 185.506" stroke="#39723B" stroke-width="0.5" stroke-linecap="round" stroke-linejoin="round"/>
<path d="M146.661 186.989C145.227 186.785 143.117 186.378 140.672 185.506C137.099 184.227 135.818 183.021 134.334 183.653C133.286 184.104 133.155 185.041 131.416 188.573C130.47 190.499 129.625 192.025 129.065 192.998" stroke="#39723B" stroke-width="0.5" stroke-linecap="round" stroke-linejoin="round"/>
<path d="M150.612 193.355C147.716 192.882 145.497 192.156 143.968 191.567C141.632 190.666 140.09 189.75 138.984 190.47C138.438 190.826 138.416 191.298 137.528 193.122C136.946 194.306 136.4 195.237 136.015 195.862" stroke="#39723B" stroke-width="0.5" stroke-linecap="round" stroke-linejoin="round"/>
<path d="M149.426 198.667C148.109 197.911 146.981 197.293 146.13 196.828C143.495 195.404 142.564 195.011 141.953 195.411C141.72 195.564 141.683 195.738 141.29 196.574C140.817 197.606 140.374 198.427 140.068 198.972" stroke="#39723B" stroke-width="0.5" stroke-linecap="round" stroke-linejoin="round"/>
<path d="M149.623 204.989C148.888 204.589 148.262 204.269 147.782 204.029C146.304 203.295 145.773 203.107 145.373 203.419C145.22 203.535 145.184 203.659 144.885 204.24C144.514 204.967 144.187 205.541 143.961 205.926" stroke="#39723B" stroke-width="0.5" stroke-linecap="round" stroke-linejoin="round"/>
<path d="M108.988 49.0944C110.152 52.815 110.756 54.7116 111.884 56.71C114.409 61.1863 118.048 64.42 118.724 63.9622C119.256 63.5989 117.669 61.1427 118.426 60.4742C119.554 59.4714 124.757 64.3038 125.405 63.6425C125.849 63.1847 123.847 60.3942 123.898 60.3579C123.957 60.3216 125.929 63.766 126.729 63.4826C127.239 63.301 126.802 61.7386 127.37 61.4843C128.556 60.9538 131.437 66.4184 133.177 65.8443C133.999 65.5755 133.65 64.2602 134.625 63.4681C136.851 61.6732 142.171 65.6263 142.84 64.7834C143.597 63.8242 137.565 57.6329 137.666 57.5384C137.776 57.4294 144.813 65.3575 146.828 64.1512C147.629 63.6716 146.894 62.2037 147.905 61.1137C149.885 58.97 155.452 61.7095 155.881 60.8811C156.405 59.8783 149.011 55.0386 148.946 55.1258C148.88 55.213 155.764 60.1472 156.216 59.624C156.419 59.3914 155.08 58.3741 155.371 57.5529C155.932 55.9542 161.87 57.3567 162.423 55.9252C162.983 54.4864 157.584 51.4125 157.955 50.7004C158.428 49.8065 167.32 54.2393 168.39 52.6697C169.19 51.4924 165.115 47.7137 165.858 46.8417C166.44 46.1586 169.045 48.3822 173.142 48.3096C173.426 48.3096 177.152 48.2151 177.486 46.9071C177.959 45.0541 171.257 42.0529 171.563 41.4061C171.759 40.9919 174.415 42.3145 178.258 42.5906C181.11 42.8014 185.316 42.4889 185.651 41.1082C186.066 39.415 180.528 36.5519 180.703 36.2758C180.79 36.1305 182.064 37.2423 183.664 37.0679C185.113 36.908 185.433 35.8543 186.939 35.0986C189.588 33.7615 192.157 35.2221 192.455 34.5536C192.935 33.4926 186.473 29.7648 186.779 29.198C186.976 28.8346 189.588 30.4478 193.314 30.6222C196.69 30.7821 200.103 29.7066 200.125 28.7765C200.14 28.1879 198.801 27.9917 195.482 26.3639C192.797 25.0486 190.68 23.7043 190.767 23.5081C190.876 23.2828 193.619 25.441 197.236 25.0777C198.917 24.9105 198.961 24.3728 203.225 23.3046C204.6 22.963 205.634 22.7596 205.619 22.5198C205.597 22.2 203.698 22.2364 200.736 21.4952C199.405 21.1609 197.906 20.6813 197.942 20.5141C197.986 20.2961 200.54 21.4443 203.385 20.7104C206.565 19.8892 206.682 17.6002 210.298 16.7209C211.79 16.3575 213.318 16.3648 213.391 15.8634C213.464 15.3184 211.696 15.0132 211.601 14.1121C211.47 12.8768 214.643 11.8013 214.483 11.2999C214.286 10.6822 209.563 12.855 206.572 10.8203C205.044 9.78111 205.161 8.45857 203.887 8.19696C201.631 7.73916 199.23 11.5033 198.67 11.0964C198.211 10.7549 199.943 8.2551 199.201 7.49209C199.019 7.31042 198.691 7.21594 196.166 7.77548C193.874 8.28415 193.379 8.53122 193.074 8.24782C192.251 7.51387 194.595 4.81064 193.78 3.69155C192.528 1.96932 185.214 5.9806 183.919 4.17844C183.279 3.28462 184.698 1.76586 184.079 1.08278C182.813 -0.319708 175.842 4.91963 174.175 3.27734C173.368 2.478 174.459 0.712168 173.695 0.18896C172.436 -0.683054 169.19 3.95315 165.756 3.18287C164.242 2.84133 164.242 1.79493 162.83 1.70046C160.051 1.51153 158.086 5.45738 157.045 4.91964C156.296 4.5345 157.256 2.45619 156.317 1.70772C155.306 0.90837 153.618 2.80502 150.452 3.22649C146.865 3.69883 146.035 1.6496 143.546 2.47802C140.577 3.4663 140.374 6.83807 138.089 6.89621C136.204 6.93981 135.607 4.65804 134.079 4.85425C131.459 5.19579 130.353 12.3172 129.982 12.2228C129.713 12.1573 130.317 8.32777 130.193 8.30597C130.055 8.2769 129.647 13.2474 127.85 13.6398C126.671 13.8941 125.943 11.9611 124.801 12.1574C122.654 12.528 122.88 19.7293 120.966 20.0345C119.605 20.2525 118.433 16.7718 117.393 17.0406C115.872 17.433 116.847 25.2812 115.777 25.4556C115.224 25.55 114.649 23.4863 114.111 23.5807C113.056 23.7697 114.096 31.9811 112.685 32.3154C111.964 32.4898 111.185 30.4624 110.581 30.6295C109.301 31.0001 111.542 40.5559 109.934 41.1228C109.039 41.4352 107.671 38.7102 107.001 39.0081C105.961 39.4732 108.165 46.522 108.966 49.0871L108.988 49.0944Z" stroke="#39723B" stroke-width="0.5" stroke-miterlimit="10"/>
<path d="M108.944 49.9083C110.152 49.1307 112.022 47.9826 114.387 46.7545C122.858 42.3653 130.098 40.9556 132.201 40.4978C143.641 38.0416 151.857 32.1264 164.46 26.531C174.823 21.9311 190.243 16.6119 211.637 14.1993" stroke="#39723B" stroke-width="0.5" stroke-miterlimit="10"/>
<path d="M123.687 22.7015C121.22 30.3534 118.288 35.8543 116.017 39.5168C114.329 42.2418 111.178 45.2939 112.139 48.2515C112.561 49.5522 113.689 50.555 115.945 52.5534C117.647 54.0649 119.197 55.1622 120.325 55.8961" stroke="#39723B" stroke-width="0.5" stroke-linecap="round" stroke-linejoin="round"/>
<path d="M137.958 13.102C134.821 20.7176 131.437 26.4656 128.752 30.4914C124.954 36.1886 121.264 40.4033 122.763 43.8332C123.323 45.1049 124.16 45.2866 128.257 48.9127C130.324 50.7439 131.961 52.3353 133.046 53.4181" stroke="#39723B" stroke-width="0.5" stroke-linecap="round" stroke-linejoin="round"/>
<path d="M149.775 6.61276C145.773 20.7684 140.897 28.4567 136.961 32.9258C135.716 34.3355 131.91 38.434 133.082 41.6605C133.664 43.2664 135.178 43.8259 137.965 45.6281C139.937 46.8998 142.717 48.9054 145.788 51.9066" stroke="#39723B" stroke-width="0.5" stroke-linecap="round" stroke-linejoin="round"/>
<path d="M153.974 12.5861C152.257 18.167 150.059 22.3236 148.255 25.2085C144.354 31.4507 140.526 34.5681 141.669 37.671C142.12 38.8918 142.942 39.0154 147.148 42.3436C149.404 44.1239 151.165 45.6717 152.279 46.6746" stroke="#39723B" stroke-width="0.5" stroke-linecap="round" stroke-linejoin="round"/>
<path d="M163.653 7.06335C161.084 13.618 158.391 18.5012 156.405 21.764C153.436 26.64 151.056 29.4886 151.959 32.9113C152.468 34.8515 153.836 36.2177 156.419 38.7974C158.712 41.0864 160.902 42.6851 162.503 43.7242" stroke="#39723B" stroke-width="0.5" stroke-linecap="round" stroke-linejoin="round"/>
<path d="M171.301 4.03307C168.834 11.685 165.901 17.186 163.631 20.8484C161.943 23.5735 158.792 26.6255 159.752 29.5831C160.174 30.8838 161.302 31.8866 163.558 33.885C165.261 35.3965 166.811 36.4938 167.939 37.2277" stroke="#39723B" stroke-width="0.5" stroke-linecap="round" stroke-linejoin="round"/>
<path d="M174.91 12.0992C174.335 13.6906 173.375 16.0087 171.788 18.603C169.474 22.389 167.786 23.5734 168.164 25.4192C168.434 26.7272 169.474 27.0978 173.127 29.9246C175.114 31.4652 176.664 32.795 177.646 33.6597" stroke="#39723B" stroke-width="0.5" stroke-linecap="round" stroke-linejoin="round"/>
<path d="M183.148 9.09074C181.918 12.2881 180.557 14.6644 179.524 16.2703C177.937 18.7265 176.526 20.2816 177.086 21.7204C177.363 22.4326 177.908 22.5634 179.779 24.0167C181.001 24.9614 181.94 25.8116 182.558 26.3929" stroke="#39723B" stroke-width="0.5" stroke-linecap="round" stroke-linejoin="round"/>
<path d="M188.962 11.7068C187.783 13.0366 186.801 14.1775 186.073 15.0495C183.817 17.7309 183.141 18.7047 183.453 19.4968C183.57 19.802 183.759 19.8892 184.632 20.5286C185.709 21.3207 186.546 22.0111 187.092 22.4907" stroke="#39723B" stroke-width="0.5" stroke-linecap="round" stroke-linejoin="round"/>
<path d="M196.261 12.9785C195.628 13.727 195.111 14.3664 194.726 14.8606C193.532 16.3793 193.19 16.9389 193.459 17.4766C193.561 17.6801 193.685 17.7528 194.289 18.2324C195.031 18.8283 195.613 19.3369 196.006 19.693" stroke="#39723B" stroke-width="0.5" stroke-linecap="round" stroke-linejoin="round"/>
<path d="M212.161 141.499C214.57 143.119 219.162 144.289 228.353 146.629C228.353 146.629 229.954 147.036 241.153 149.63C241.153 149.63 240.978 140.801 240.636 137.502C239.647 128.048 232.108 115.338 220.566 112.788C215.21 111.603 206.747 112.112 203.269 117.322C198.706 124.16 204.557 136.39 212.161 141.499Z" stroke="#39723B" stroke-width="0.5" stroke-miterlimit="10"/>
<path d="M204.637 115.694C205.11 114.328 210.342 100.056 224.336 96.2558C230.048 94.7007 238.082 94.6716 243.292 97.6946C246.858 99.7657 248.219 100.914 248.219 100.914C250.38 102.389 252.592 103.966 255.962 105.339C256.02 105.361 256.071 105.383 256.1 105.397C254.07 107.665 249.805 111.814 243.03 114.401C237.063 116.675 231.816 116.726 228.862 116.537" stroke="#39723B" stroke-width="0.5" stroke-miterlimit="10"/>
<path d="M202.352 118.601C198.044 126.573 198.037 132.357 198.815 136.15C199.135 137.706 201.238 141.913 205.452 150.321C205.787 150.996 211.484 162.362 209.156 166.424C209.061 166.591 208.77 167.056 208.872 167.143C209.199 167.434 213.711 163.721 216.506 159.688C221.272 152.806 219.635 144.914 220.894 144.849C221.694 144.805 221.883 147.923 223.608 151.084C226.773 156.89 233.097 159.121 236.466 160.305C237.354 160.618 254.572 166.496 259.738 159.31C264.73 152.363 255.321 137.611 254.033 135.598C253.647 134.995 253.145 133.832 252.032 132.742C249.878 130.635 247.287 130.184 245.861 129.836C243.387 129.225 239.908 127.794 235.855 124.08" stroke="#39723B" stroke-width="0.5" stroke-miterlimit="10"/>
<path d="M243.052 162.231C246.785 165.254 247.819 167.972 248.001 169.985C248.706 177.731 238.002 186.553 238.002 186.553C236.779 182.142 234.909 179.199 233.41 177.317C228.847 171.59 224.052 171.06 220.726 165.486C218.863 162.362 218.383 159.186 218.267 156.999" stroke="#39723B" stroke-width="0.5" stroke-miterlimit="10"/>
<path d="M240.032 96.0887C243.329 93.7924 248.735 90.7984 255.831 90.0282C260.422 89.5268 263.093 89.2361 266.113 90.6458C271.018 92.9276 272.633 97.7164 278.615 98.93C279.714 99.1552 280.631 99.1916 281.176 99.1916C279.525 100.703 277.05 102.81 273.827 105.041C269.621 107.948 267.525 109.394 264.505 109.968C262.853 110.281 258.8 110.738 253.524 107.955" stroke="#39723B" stroke-width="0.5" stroke-miterlimit="10"/>
<path d="M250.598 131.347C256.791 132.837 261.47 132.357 264.752 131.536C264.752 131.536 267.015 130.969 275.202 127.786C274.554 125.316 273.317 121.74 270.843 117.94C268.42 114.212 265.706 111.669 263.733 110.077" stroke="#39723B" stroke-width="0.5" stroke-miterlimit="10"/>
<path d="M244.82 179.162C249.041 181.364 252.672 182.382 255.256 182.905C261.041 184.075 263.086 183.065 267.976 185.107C267.976 185.107 269.097 185.572 274.707 188.384C274.176 186.691 273.426 184.009 272.866 180.652C271.658 173.385 272.59 170.326 271.709 166.446C270.93 163.016 268.573 158.263 261.121 153.394" stroke="#39723B" stroke-width="0.5" stroke-miterlimit="10"/>
<path d="M265.764 156.941C271.061 159.593 275.595 160.4 278.469 160.669C281.868 160.988 286.307 161.402 287.777 159.077C288.635 157.718 288.141 155.967 287.209 152.653C286.445 149.957 285.484 147.857 284.298 145.561C281.773 140.663 280.514 138.214 278.637 136.092C277.116 134.37 274.445 131.834 270.174 129.77" stroke="#39723B" stroke-width="0.5" stroke-miterlimit="10"/>
<path d="M276.817 102.6C281.991 103.937 284.91 106.233 286.62 108.101C289.363 111.095 289.087 113.049 294.246 122.249C294.814 123.266 297.302 127.67 297.302 127.67C295.243 129.065 290.396 131.936 283.556 132.35C277.24 132.735 272.415 130.824 270.166 129.763" stroke="#39723B" stroke-width="0.5" stroke-miterlimit="10"/>
<path d="M289.589 112.73C299.493 113.507 305.584 116.784 309.44 119.938C315.859 125.199 322.568 135.46 326.279 134.276C326.439 134.225 326.658 134.13 326.658 134.13C326.658 134.123 313.079 141.353 298.91 142.284C291.612 142.763 285.448 141.484 281.111 140.198" stroke="#39723B" stroke-width="0.5" stroke-miterlimit="10"/>
<path d="M283.767 160.894C285.826 162.238 289.276 164.084 293.875 164.818C297.652 165.414 301.836 166.082 305.62 163.975C306.857 163.285 310.299 161.054 312.577 161.097C312.686 161.097 314.76 161.141 314.76 161.141C314.411 160.945 313.887 160.618 313.355 160.109C310.918 157.82 310.808 154.39 310.685 153.351C310.372 150.728 308.065 146.985 298.903 142.291" stroke="#39723B" stroke-width="0.5" stroke-miterlimit="10"/>
<path d="M272.277 175.74C275.959 181.321 279.219 182.68 281.591 182.81C285.426 183.021 291.517 180.303 294.755 180.965C294.937 181.001 297.404 181.524 297.404 181.524C297.703 180.042 298.321 175.921 296.291 171.409C293.933 166.155 289.574 163.895 288.322 163.299" stroke="#39723B" stroke-width="0.5" stroke-miterlimit="10"/>
<path d="M297.681 177.411C298.27 178.697 299.58 181.03 302.112 182.091C304.739 183.196 307.308 182.353 311.15 181.095C315.982 179.511 320.145 177.295 320.079 177.142C320.065 177.113 319.89 177.164 319.752 177.208C318.769 176.285 317.358 174.766 316.244 172.564C315.036 170.181 315.145 168.931 314.178 167.267C313.326 165.821 311.594 163.968 307.636 162.754" stroke="#39723B" stroke-width="0.5" stroke-miterlimit="10"/>
<path d="M316.346 172.739C318.34 176.052 320.749 177.76 322.088 178.559C328.877 182.614 337.981 181.088 340.149 178.036C340.419 177.658 340.935 176.75 342.049 175.965C343.519 174.926 345.592 174.417 345.592 174.417C344.836 174.257 343.73 173.93 342.667 173.146C340.2 171.336 339.924 168.568 338.65 165.37C337.901 163.503 336.598 160.93 334.138 158.132" stroke="#39723B" stroke-width="0.5" stroke-miterlimit="10"/>
<path d="M321.076 136.601C330.522 141.303 332.72 147.145 333.309 149.143C334.211 152.195 334.815 157.958 334.139 158.132C334.058 158.154 333.993 158.082 333.869 158.002C332.77 157.304 331.017 158.321 330.027 158.699C328.761 159.179 327.531 158.954 325.079 158.503C321.746 157.893 320.996 156.548 317.736 155.284C316.208 154.695 313.916 154.034 310.823 153.961" stroke="#39723B" stroke-width="0.5" stroke-miterlimit="10"/>
<path d="M315.007 169.549C318.66 171.285 321.498 171.445 323.5 171.205C323.5 171.205 324.089 171.133 329.154 170.057C328.863 168.422 328.222 165.959 326.672 163.321C324.846 160.203 322.583 158.256 321.156 157.202" stroke="#39723B" stroke-width="0.5" stroke-miterlimit="10"/>
<path d="M178.178 180.325C178.498 181.996 179.917 184.387 182.748 189.176C182.748 189.176 183.242 190.012 186.801 195.731C186.801 195.731 190.41 192.003 191.64 190.491C195.169 186.16 197.338 177.774 193.619 171.925C191.895 169.214 188.176 165.908 184.567 166.62C179.83 167.557 177.159 175.049 178.178 180.325Z" stroke="#39723B" stroke-width="0.5" stroke-miterlimit="10"/>
<path d="M185.811 166.518C186.575 166.148 194.689 162.413 202.068 166.649C205.081 168.379 208.421 171.7 209.316 175.115C209.934 177.455 210.015 178.494 210.015 178.494C210.298 180.005 210.553 181.575 211.375 183.544C211.39 183.581 211.404 183.61 211.412 183.624C209.629 183.719 206.136 183.668 202.25 181.924C198.83 180.391 196.639 178.232 195.49 176.924" stroke="#39723B" stroke-width="0.5" stroke-miterlimit="10"/>
<path d="M183.65 166.773C178.541 168.284 176.133 170.675 174.874 172.571C174.357 173.349 173.477 175.965 171.723 181.197C171.585 181.619 169.205 188.689 166.549 189.401C166.44 189.43 166.127 189.503 166.134 189.583C166.149 189.837 169.562 190.172 172.4 189.663C177.239 188.791 179.844 184.845 180.397 185.339C180.746 185.652 179.524 187.025 178.927 189.045C177.821 192.766 179.509 196.312 180.412 198.201C180.652 198.703 185.331 208.288 190.461 207.459C195.424 206.66 197.665 196.639 197.971 195.273C198.066 194.866 198.342 194.176 198.335 193.26C198.32 191.494 197.433 190.23 196.989 189.489C196.217 188.21 195.373 186.168 195.242 182.948" stroke="#39723B" stroke-width="0.5" stroke-miterlimit="10"/>
<path d="M182.333 201.74C182.617 204.545 181.918 206.093 181.154 207.009C178.221 210.511 170.115 209.719 170.115 209.719C171.446 207.387 171.898 205.388 172.058 203.986C172.552 199.72 170.791 197.504 171.73 193.82C172.261 191.749 173.382 190.237 174.248 189.278" stroke="#39723B" stroke-width="0.5" stroke-miterlimit="10"/>
<path d="M208.632 173.095C210.953 173.509 214.439 174.519 217.699 177.142C219.809 178.843 221.039 179.831 221.701 181.67C222.778 184.649 221.461 187.309 223.426 190.288C223.79 190.84 224.154 191.233 224.379 191.458C223.069 191.4 221.163 191.247 218.9 190.826C215.953 190.281 214.475 190.012 212.984 188.994C212.169 188.435 210.298 186.945 209.272 183.602" stroke="#39723B" stroke-width="0.5" stroke-miterlimit="10"/>
<path d="M198.32 192.083C200.263 195.273 202.403 197.017 204.106 198.042C204.106 198.042 205.277 198.746 209.993 200.832C210.757 199.539 211.732 197.547 212.292 194.946C212.838 192.395 212.78 190.215 212.62 188.74" stroke="#39723B" stroke-width="0.5" stroke-miterlimit="10"/>
<path d="M176.016 209.487C176.846 212.154 177.923 214.079 178.774 215.373C180.681 218.265 181.947 218.694 183.126 221.564C183.126 221.564 183.395 222.218 184.545 225.714C185.033 224.791 185.833 223.366 187.005 221.746C189.53 218.236 191.196 217.357 192.441 215.38C193.547 213.636 194.551 210.693 193.496 205.577" stroke="#39723B" stroke-width="0.5" stroke-miterlimit="10"/>
<path d="M193.94 208.978C195.024 212.277 196.574 214.494 197.651 215.802C198.924 217.349 200.591 219.362 202.17 219.006C203.094 218.803 203.618 217.873 204.608 216.107C205.415 214.675 205.888 213.404 206.354 211.958C207.351 208.884 207.846 207.343 207.955 205.686C208.042 204.342 207.992 202.184 207.082 199.553" stroke="#39723B" stroke-width="0.5" stroke-miterlimit="10"/>
<path d="M221.148 191.073C222.735 193.776 222.989 195.942 222.917 197.424C222.808 199.8 221.876 200.498 220.181 206.449C219.991 207.111 219.191 209.966 219.191 209.966C217.757 209.69 214.555 208.869 211.55 206.195C208.777 203.732 207.569 200.934 207.082 199.568" stroke="#39723B" stroke-width="0.5" stroke-miterlimit="10"/>
<path d="M222.218 200.57C225.995 205.003 227.152 208.891 227.436 211.798C227.901 216.637 226.41 223.679 228.433 224.725C228.52 224.769 228.651 224.82 228.651 224.82C228.651 224.82 220.02 222.167 213.762 216.674C210.538 213.84 208.515 210.751 207.264 208.419" stroke="#39723B" stroke-width="0.5" stroke-miterlimit="10"/>
<path d="M199.747 218.091C200.038 219.508 200.7 221.702 202.301 223.911C203.618 225.728 205.073 227.741 207.519 228.438C208.319 228.671 210.669 229.172 211.601 230.139C211.645 230.19 212.489 231.062 212.489 231.062C212.423 230.836 212.343 230.48 212.336 230.052C212.285 228.09 213.66 226.629 214.046 226.142C215.007 224.929 215.611 222.422 213.777 216.674" stroke="#39723B" stroke-width="0.5" stroke-miterlimit="10"/>
<path d="M188.809 219.471C188.009 223.315 188.795 225.227 189.719 226.266C191.218 227.944 194.871 229.347 195.933 230.967C195.992 231.062 196.799 232.297 196.799 232.297C197.534 231.81 199.514 230.357 200.554 227.647C201.762 224.493 200.904 221.746 200.634 220.983" stroke="#39723B" stroke-width="0.5" stroke-miterlimit="10"/>
<path d="M198.633 230.713C198.342 231.491 197.913 233.002 198.517 234.492C199.143 236.04 200.562 236.759 202.672 237.827C205.335 239.179 207.984 239.985 208.013 239.898C208.013 239.884 207.926 239.826 207.853 239.789C207.831 239.004 207.882 237.784 208.334 236.41C208.828 234.92 209.396 234.448 209.68 233.358C209.935 232.406 209.985 230.924 208.85 228.773" stroke="#39723B" stroke-width="0.5" stroke-miterlimit="10"/>
<path d="M225.318 223.526C227.268 229.398 225.747 232.726 225.158 233.801C224.263 235.436 222.109 238.082 221.76 237.871C221.716 237.849 221.723 237.791 221.701 237.704C221.541 236.955 220.384 236.65 219.824 236.396C219.096 236.069 218.681 235.466 217.859 234.259C216.738 232.624 216.979 231.752 216.156 229.877C215.771 228.998 215.094 227.777 213.842 226.462" stroke="#39723B" stroke-width="0.5" stroke-miterlimit="10"/>
<path d="M235.819 75.1022C237.318 74.1793 239.123 71.9266 242.732 67.4357C242.732 67.4357 243.358 66.6509 247.608 61.1064C247.608 61.1064 242.666 58.9845 240.745 58.3522C235.251 56.5283 226.308 57.5093 222 63.2573C219.999 65.9242 218.158 70.7348 220.173 73.9686C222.822 78.2124 231.074 78.038 235.819 75.1167L235.819 75.1022Z" stroke="#39723B" stroke-width="0.5" stroke-miterlimit="10"/>
<path d="M219.613 72.7913C218.973 72.1882 212.365 65.7135 213.769 57.0151C214.344 53.4617 216.338 49.0144 219.322 46.8852C221.367 45.4319 222.342 44.9668 222.342 44.9668C223.703 44.1384 225.136 43.3173 226.744 41.7912C226.774 41.7622 226.795 41.7404 226.81 41.7258C227.559 43.419 228.789 46.8198 228.527 51.2162C228.294 55.0894 227.006 58.0034 226.155 59.5949" stroke="#39723B" stroke-width="0.5" stroke-miterlimit="10"/>
<path d="M220.654 74.7824C223.994 79.1643 227.203 80.6249 229.502 81.1408C230.448 81.3516 233.308 81.2426 239.028 81.0246C239.486 81.01 247.222 80.7048 248.888 83.0157C248.954 83.1101 249.143 83.3863 249.216 83.3499C249.463 83.2409 248.532 79.811 246.996 77.2531C244.377 72.8858 239.581 71.8176 239.865 71.0982C240.039 70.6476 241.815 71.3234 244.005 71.1636C248.022 70.8656 250.846 67.9298 252.345 66.3602C252.745 65.946 260.328 57.8944 257.635 53.2364C255.037 48.731 244.486 50.2352 243.052 50.4459C242.623 50.5041 241.851 50.4895 240.964 50.8311C239.254 51.4924 238.351 52.8149 237.798 53.5198C236.838 54.7334 235.171 56.303 232.093 57.611" stroke="#39723B" stroke-width="0.5" stroke-miterlimit="10"/>
<path d="M255.074 63.2137C257.686 61.9057 259.455 62.0147 260.619 62.4216C265.094 63.9695 267.299 72.1082 267.299 72.1082C264.548 71.6795 262.445 71.9702 261.019 72.3335C256.697 73.4235 255.197 75.9451 251.275 76.3811C249.078 76.6282 247.193 76.0977 245.948 75.6108" stroke="#39723B" stroke-width="0.5" stroke-miterlimit="10"/>
<path d="M217.612 48.2878C217.161 45.8897 216.862 42.1474 218.216 38.0271C219.089 35.3602 219.598 33.8124 221.141 32.4898C223.637 30.3461 226.701 30.6513 228.869 27.6501C229.269 27.0978 229.517 26.5965 229.655 26.2985C230.077 27.592 230.63 29.4886 231.06 31.8358C231.613 34.8878 231.896 36.4139 231.453 38.2306C231.212 39.2261 230.448 41.5806 227.581 43.8042" stroke="#39723B" stroke-width="0.5" stroke-miterlimit="10"/>
<path d="M239.828 51.2889C242.208 48.2369 243.118 45.5264 243.489 43.5062C243.489 43.5062 243.743 42.111 244.035 36.7844C242.499 36.5228 240.207 36.3121 237.478 36.7263C234.8 37.1332 232.712 37.9907 231.336 38.6883" stroke="#39723B" stroke-width="0.5" stroke-miterlimit="10"/>
<path d="M264.912 66.4838C267.19 64.7034 268.667 62.9521 269.606 61.6514C271.709 58.7446 271.658 57.364 274.016 55.1621C274.016 55.1621 274.554 54.6607 277.523 52.2627C276.454 52.1319 274.773 51.8775 272.771 51.3398C268.442 50.1844 266.972 48.8982 264.599 48.4113C262.504 47.9825 259.273 48.0915 254.703 50.991" stroke="#39723B" stroke-width="0.5" stroke-miterlimit="10"/>
<path d="M257.832 49.3196C260.633 47.0524 262.22 44.7488 263.086 43.2228C264.119 41.4206 265.458 39.0735 264.541 37.671C264.003 36.8571 262.911 36.69 260.83 36.3775C259.142 36.1232 257.737 36.1304 256.165 36.2104C252.818 36.3775 251.144 36.4574 249.492 36.9661C248.153 37.3731 246.079 38.216 243.86 40.0617" stroke="#39723B" stroke-width="0.5" stroke-miterlimit="10"/>
<path d="M230.463 29.5685C232.5 27.0397 234.509 26.0005 235.972 25.5209C238.322 24.7507 239.341 25.3974 245.737 24.8524C246.443 24.7943 249.514 24.5181 249.514 24.5181C249.769 26.0078 250.147 29.4087 248.663 33.2964C247.287 36.8862 245.017 39.0808 243.867 40.0545" stroke="#39723B" stroke-width="0.5" stroke-miterlimit="10"/>
<path d="M239.283 25.0486C242.201 19.7656 245.548 17.215 248.262 15.8779C252.789 13.647 260.168 12.5061 260.444 10.1589C260.459 10.0572 260.459 9.91187 260.459 9.91187C260.459 9.91187 261.063 19.2351 258.021 27.3085C256.456 31.4651 254.201 34.5608 252.396 36.6318" stroke="#39723B" stroke-width="0.5" stroke-miterlimit="10"/>
<path d="M264.548 40.3524C265.815 39.5458 267.699 38.107 269.264 35.7453C270.545 33.805 271.964 31.6541 271.745 29.038C271.673 28.1806 271.302 25.7171 271.891 24.4672C271.92 24.4091 272.459 23.2682 272.459 23.2682C272.262 23.4135 271.949 23.617 271.534 23.7914C269.65 24.5617 267.721 23.7696 267.117 23.5734C265.582 23.0865 262.926 23.4208 258.028 27.3158" stroke="#39723B" stroke-width="0.5" stroke-miterlimit="10"/>
<path d="M269.897 50.4315C273.921 49.7992 275.486 48.3314 276.155 47.0524C277.232 44.9814 277.254 40.9338 278.433 39.306C278.498 39.2115 279.408 37.9762 279.408 37.9762C278.659 37.4384 276.526 36.065 273.514 36.0505C270.006 36.036 267.663 37.8817 267.015 38.4267" stroke="#39723B" stroke-width="0.5" stroke-miterlimit="10"/>
<path d="M277.203 36.7989C278.069 36.7989 279.685 36.6536 280.907 35.52C282.181 34.3428 282.355 32.7078 282.617 30.2734C282.952 27.1995 282.763 24.3437 282.668 24.3437C282.646 24.3437 282.632 24.4527 282.617 24.5399C281.86 24.8524 280.66 25.252 279.161 25.3174C277.538 25.3901 276.868 25.0122 275.704 25.1358C274.685 25.2448 273.23 25.7389 271.556 27.621" stroke="#39723B" stroke-width="0.5" stroke-miterlimit="10"/>
<path d="M279.292 25.2957C281.635 25.0195 283.185 24.1184 283.964 23.5807C287.922 20.8411 289.356 15.4201 288.206 13.4581C288.068 13.2183 287.689 12.7023 287.537 11.8884C287.333 10.813 287.566 9.54126 287.566 9.54126C287.289 9.91913 286.831 10.4496 286.125 10.842C284.502 11.7504 282.901 11.2126 280.805 11.1109C279.583 11.0527 277.829 11.1327 275.66 11.7867" stroke="#39723B" stroke-width="0.5" stroke-miterlimit="10"/>
<path d="M260.43 13.6107C265.407 9.5631 269.198 9.81745 270.457 9.99185C272.379 10.2607 275.726 11.3725 275.653 11.7867C275.646 11.8376 275.588 11.8521 275.515 11.903C274.853 12.3317 274.976 13.5598 274.933 14.2066C274.882 15.0277 274.445 15.6527 273.579 16.8953C272.4 18.5812 271.469 18.6684 269.948 20.1508C269.235 20.8484 268.296 21.953 267.481 23.6461" stroke="#39723B" stroke-width="0.5" stroke-miterlimit="10"/>
<path d="M277.189 25.2375C279.066 23.6533 279.867 22.12 280.238 20.9574C280.238 20.9574 280.347 20.6158 281.024 17.542C280.041 17.2949 278.52 17.0333 276.665 17.2222C274.474 17.4475 272.83 18.2105 271.884 18.7337" stroke="#39723B" stroke-width="0.5" stroke-miterlimit="10"/>
<path d="M0.710986 112.209C0.710986 112.209 51.3299 88.832 60.1933 86.4194C60.6081 86.3032 64.9015 85.1405 70.9123 83.3747C70.9269 83.3747 70.9414 83.3674 70.9414 83.3674C84.5058 79.2035 105.711 83.7525 109.473 84.6245C128.91 89.0936 142.052 97.0289 151.694 102.857C156.839 105.967 159.466 107.573 162.086 110.225C166.86 115.065 168.664 119.672 175.92 143.907C179.071 154.444 182.804 167.153 182.804 167.153L187.657 164.922C187.657 164.922 184.033 150.171 179.798 137.331C174.028 119.847 169.509 113.154 171.626 111.497C175.454 108.496 195.538 126.22 198.944 122.797C199.555 122.187 199.577 120.951 201.331 118.698C202.772 116.845 203.616 116.569 203.616 115.792C203.616 114.077 199.57 112.841 195.873 111.57C186.406 108.314 181.676 106.694 181.494 104.884C181.232 102.283 189.637 101.781 199.526 95.2122C210.987 87.5966 219.225 75.3013 219.225 75.3013C219.225 75.3013 217.566 70.5197 215.921 70.5052C214.924 70.5052 214.175 72.2347 214.007 72.598C212.108 76.82 206.359 81.2164 197.19 88.2289C187.65 95.5247 182.302 99.6159 174.704 99.9792C169.188 100.241 165.135 98.4169 159.917 95.9898C139.433 86.463 131.261 81.9286 125.024 79.1163C119.348 76.5512 101.046 68.3833 81.464 71.072C78.5895 71.4644 75.3076 72.1475 57.297 80.1627C26.115 94.0132 0.632447 108.042 0.377751 108.173L-0.342172 112.97L0.710986 112.209Z" stroke="#39723B" stroke-width="0.5" stroke-miterlimit="10"/>
<path d="M67.8363 84.876C67.8363 84.876 67.5234 84.8906 67.3851 84.9269C66.1116 85.2321 64.94 91.2345 67.1814 96.7718C67.1814 96.7718 68.3093 99.5477 70.9217 103.261C70.9217 103.261 70.0776 103.552 69.4736 103.653C69.4736 103.653 68.6804 103.784 67.7417 103.559C66.2062 103.196 65.3039 99.3587 64.0668 91.6705C63.7539 89.723 63.2299 86.2931 64.5398 85.53C64.7654 85.3992 65.3476 85.174 65.9734 85.0359C66.9412 84.8252 67.829 84.8688 67.8363 84.8833L67.8363 84.876Z" stroke="#39723B" stroke-width="0.5" stroke-miterlimit="10"/>
<path d="M67.8363 84.876C68.1274 84.193 69.2117 84.0839 69.2771 84.0767C71.0964 83.9095 72.268 86.2277 74.3565 88.197C75.5645 89.3306 77.522 90.7694 80.6729 91.7504C83.8166 92.2227 86.9676 92.7024 90.1185 93.1747C90.0021 93.4 89.7983 93.7197 89.4854 94.0467C86.6765 96.9316 79.7124 94.5699 76.0375 92.7024C71.6931 90.5005 67.1159 86.5474 67.8363 84.876Z" stroke="#39723B" stroke-width="0.5" stroke-miterlimit="10"/>
<path d="M101.209 122.133C101.965 122.264 100.423 127.278 102.468 132.597C102.468 132.597 102.54 132.793 105.007 137.829C105.007 137.829 104.447 138.062 103.574 138.425C102.053 135.86 101.187 133.571 100.685 131.928C99.0474 126.587 99.9643 124.138 100.328 123.317C100.474 122.998 100.881 122.075 101.209 122.133Z" stroke="#39723B" stroke-width="0.5" stroke-miterlimit="10"/>
<path d="M108.9 48.2587C103.588 48.4985 94.5793 49.5595 84.9009 54.3991C67.5015 63.1047 57.4957 79.2515 58.318 80.0654C58.5581 80.3052 60.2682 78.9899 63.6884 76.3594C73.7962 68.5839 78.6572 63.0321 82.1211 60.0745C86.8293 56.0487 94.9359 51.7032 109.635 51.4634" stroke="#39723B" stroke-width="0.5" stroke-miterlimit="10"/>
</g>
<path d="M220 237.011C220.688 237.686 220.463 237.747 220.632 239.578C220.811 241.48 219.778 242.886 218.241 244.976C216.304 247.616 214.1 249.683 214.026 249.605C214.019 249.59 214.075 249.489 214.128 249.418C213.746 248.59 213.067 247.343 211.913 246.121C210.657 244.799 209.852 244.57 209.01 243.567C208.268 242.693 207.861 242.333 207.875 239.567" stroke="#39723B" stroke-width="0.5" stroke-miterlimit="10"/>
<defs>
<clipPath id="clip0_166_2321">
<rect width="346" height="240" fill="white" transform="matrix(1 -8.74228e-08 -8.74228e-08 -1 1.52588e-05 240)"/>
</clipPath>
</defs>
</svg>
