<svg width="34" height="33" viewBox="0 0 34 33" fill="none" xmlns="http://www.w3.org/2000/svg">
<path d="M9.5625 10.3125C9.5625 12.227 10.3461 14.0631 11.7409 15.4169C13.1357 16.7707 15.0275 17.5312 17 17.5312C18.9725 17.5312 20.8643 16.7707 22.2591 15.4169C23.6539 14.0631 24.4375 12.227 24.4375 10.3125C24.4375 8.39797 23.6539 6.56185 22.2591 5.20807C20.8643 3.85429 18.9725 3.09375 17 3.09375C15.0275 3.09375 13.1357 3.85429 11.7409 5.20807C10.3461 6.56185 9.5625 8.39797 9.5625 10.3125ZM27.625 29.9062H5.3125C5.03071 29.9062 4.76046 29.7976 4.5612 29.6042C4.36194 29.4108 4.25 29.1485 4.25 28.875V25.7812C4.25 24.4137 4.80971 23.1022 5.806 22.1352C6.80228 21.1682 8.15354 20.625 9.5625 20.625H24.4375C25.8465 20.625 27.1977 21.1682 28.194 22.1352C29.1903 23.1022 29.75 24.4137 29.75 25.7812V28.875C29.75 29.1485 29.6381 29.4108 29.4388 29.6042C29.2395 29.7976 28.9693 29.9062 28.6875 29.9062H27.625Z" fill="black"/>
</svg>
