<svg width="82" height="100" viewBox="0 0 82 100" fill="none" xmlns="http://www.w3.org/2000/svg">
<circle cx="40.8836" cy="30.4932" r="29.4041" stroke="black" stroke-width="2.17808"/>
<path d="M23.264 84.9863V76.4657H25.0544V83.4835H28.4784V84.9863H23.264ZM33.3881 85.1432C32.6302 85.1432 31.9593 84.9645 31.3756 84.6073C30.8006 84.2501 30.3519 83.7405 30.0295 83.0783C29.7072 82.4075 29.546 81.6103 29.546 80.6868C29.546 79.7633 29.7072 78.9748 30.0295 78.3214C30.3519 77.668 30.8006 77.1714 31.3756 76.8316C31.9593 76.4831 32.6302 76.3088 33.3881 76.3088C34.1461 76.3088 34.8126 76.4831 35.3876 76.8316C35.9626 77.1714 36.4113 77.668 36.7337 78.3214C37.056 78.9748 37.2172 79.7633 37.2172 80.6868C37.2172 81.6103 37.056 82.4075 36.7337 83.0783C36.4113 83.7405 35.9626 84.2501 35.3876 84.6073C34.8126 84.9645 34.1461 85.1432 33.3881 85.1432ZM33.3881 83.588C33.7889 83.588 34.1374 83.4704 34.4336 83.2351C34.7385 82.9999 34.9694 82.6645 35.1262 82.2289C35.2918 81.7933 35.3745 81.2792 35.3745 80.6868C35.3745 80.0944 35.2918 79.589 35.1262 79.1708C34.9694 78.7439 34.7385 78.4172 34.4336 78.1907C34.1374 77.9642 33.7889 77.8509 33.3881 77.8509C32.9786 77.8509 32.6214 77.9642 32.3165 78.1907C32.0203 78.4172 31.7894 78.7439 31.6239 79.1708C31.4671 79.589 31.3886 80.0944 31.3886 80.6868C31.3886 81.2792 31.4671 81.7933 31.6239 82.2289C31.7894 82.6645 32.0203 82.9999 32.3165 83.2351C32.6214 83.4704 32.9786 83.588 33.3881 83.588ZM42.3749 85.1432C41.6517 85.1432 40.994 84.9776 40.4015 84.6465C39.8091 84.3155 39.3343 83.8232 38.9771 83.1698C38.6198 82.5164 38.4412 81.7148 38.4412 80.7652C38.4412 80.0595 38.5458 79.4322 38.7549 78.8833C38.964 78.3345 39.2515 77.8684 39.6174 77.485C39.992 77.093 40.4189 76.8011 40.8981 76.6094C41.386 76.409 41.8957 76.3088 42.4271 76.3088C42.976 76.3088 43.4639 76.4178 43.8908 76.6356C44.3264 76.8534 44.6836 77.1104 44.9624 77.4066L44.0084 78.5566C43.7906 78.3475 43.5597 78.1776 43.3158 78.047C43.0718 77.9163 42.7887 77.8509 42.4663 77.8509C42.0569 77.8509 41.6866 77.9685 41.3555 78.2038C41.0245 78.4303 40.7631 78.757 40.5714 79.1839C40.3797 79.6108 40.2839 80.1205 40.2839 80.7129C40.2839 81.3141 40.371 81.8325 40.5453 82.2681C40.7195 82.695 40.9678 83.0217 41.2902 83.2482C41.6212 83.4747 42.0046 83.588 42.4402 83.588C42.7974 83.588 43.1154 83.5096 43.3942 83.3528C43.6817 83.1959 43.9344 82.9999 44.1522 82.7647L45.1062 83.8886C44.7577 84.2981 44.3526 84.6117 43.8908 84.8295C43.4291 85.0386 42.9237 85.1432 42.3749 85.1432ZM45.3424 84.9863L48.0476 76.4657H50.1908L52.896 84.9863H51.0011L49.8249 80.5953C49.703 80.1597 49.581 79.7023 49.459 79.2231C49.3457 78.7439 49.2281 78.2778 49.1062 77.8248H49.0539C48.9493 78.2778 48.8361 78.7439 48.7141 79.2231C48.6008 79.7023 48.4832 80.1597 48.3613 80.5953L47.172 84.9863H45.3424ZM47.0675 82.8692V81.4709H51.1448V82.8692H47.0675ZM53.8678 84.9863V76.4657H55.6582V83.4835H59.0821V84.9863H53.8678Z" fill="black"/>
<path d="M25.3522 38.8727C21.4099 39.963 18.9726 41.4691 18.9726 43.1327C18.9726 46.46 28.7239 49.1568 40.7534 49.1568C52.783 49.1568 62.5343 46.46 62.5343 43.1327C62.5343 41.4691 60.0959 39.963 56.1546 38.8727" stroke="black" stroke-width="2.17808" stroke-linecap="round" stroke-linejoin="round"/>
<path d="M30.5831 41.1246C28.1192 41.5505 26.5959 42.1388 26.5959 42.7886C26.5959 44.0882 32.6904 45.1416 40.2089 45.1416C47.7274 45.1416 53.8219 44.0882 53.8219 42.7886C53.8219 42.1388 52.2979 41.5505 49.8347 41.1246" stroke="black" stroke-width="1.08904" stroke-linecap="round" stroke-linejoin="round"/>
<path d="M40.7534 41.1246C40.7534 41.1246 54.911 32.5945 54.911 22.733C54.911 15.7009 48.5727 10.0001 40.7534 10.0001C32.9341 10.0001 26.5959 15.7009 26.5959 22.733C26.5959 32.5945 40.7534 41.1246 40.7534 41.1246Z" stroke="black" stroke-width="2.17808" stroke-linejoin="round"/>
<path d="M40.7534 28.0723C42.1976 28.0723 43.5826 27.5434 44.6038 26.602C45.6249 25.6605 46.1986 24.3837 46.1986 23.0523C46.1986 21.7208 45.6249 20.444 44.6038 19.5025C43.5826 18.5611 42.1976 18.0322 40.7534 18.0322C39.3093 18.0322 37.9243 18.5611 36.9031 19.5025C35.8819 20.444 35.3082 21.7208 35.3082 23.0523C35.3082 24.3837 35.8819 25.6605 36.9031 26.602C37.9243 27.5434 39.3093 28.0723 40.7534 28.0723Z" fill="black"/>
</svg>
