<svg width="81" height="100" viewBox="0 0 81 100" fill="none" xmlns="http://www.w3.org/2000/svg">
<circle cx="40.7055" cy="30.4932" r="29.4041" stroke="black" stroke-width="2.17808"/>
<path d="M8.71548 84.9863L11.4207 76.4657H13.5639L16.2691 84.9863H14.3741L13.198 80.5953C13.076 80.1597 12.954 79.7023 12.8321 79.2231C12.7188 78.7439 12.6012 78.2778 12.4792 77.8248H12.4269C12.3224 78.2778 12.2091 78.7439 12.0872 79.2231C11.9739 79.7023 11.8563 80.1597 11.7343 80.5953L10.5451 84.9863H8.71548ZM10.4405 82.8692V81.4709H14.5179V82.8692H10.4405ZM17.2408 84.9863V76.4657H20.2466C20.8477 76.4657 21.3923 76.5441 21.8802 76.7009C22.368 76.8577 22.7557 77.1278 23.0432 77.5111C23.3395 77.8945 23.4876 78.4172 23.4876 79.0794C23.4876 79.7154 23.3395 80.2381 23.0432 80.6476C22.7557 81.0484 22.368 81.3489 21.8802 81.5493C21.3923 81.741 20.8477 81.8368 20.2466 81.8368H19.0312V84.9863H17.2408ZM21.8671 84.9863L19.9199 81.3533L21.1745 80.2294L23.8796 84.9863H21.8671ZM19.0312 80.3993H20.0898C20.6212 80.3993 21.0263 80.2904 21.3051 80.0726C21.5839 79.8461 21.7233 79.515 21.7233 79.0794C21.7233 78.635 21.5839 78.3258 21.3051 78.1515C21.0263 77.9773 20.6212 77.8901 20.0898 77.8901H19.0312V80.3993ZM26.852 84.9863V77.9685H24.4605V76.4657H31.0339V77.9685H28.6424V84.9863H26.852ZM32.3896 84.9863V76.4657H34.18V84.9863H32.3896ZM38.8182 85.1432C38.2607 85.1432 37.7031 85.0386 37.1455 84.8295C36.5966 84.6117 36.1087 84.3024 35.6818 83.9016L36.7142 82.6732C37.0192 82.952 37.3589 83.1742 37.7336 83.3397C38.1169 83.5052 38.4915 83.588 38.8575 83.588C39.2844 83.588 39.6024 83.5096 39.8115 83.3528C40.0293 83.1872 40.1382 82.9607 40.1382 82.6732C40.1382 82.4815 40.0859 82.3247 39.9813 82.2027C39.8768 82.0808 39.7287 81.9762 39.537 81.8891C39.3541 81.7933 39.1362 81.6931 38.8836 81.5885L37.7597 81.105C37.4635 80.983 37.1847 80.8218 36.9233 80.6215C36.6619 80.4211 36.4485 80.1728 36.283 79.8765C36.1174 79.5716 36.0347 79.2144 36.0347 78.8049C36.0347 78.3345 36.161 77.9119 36.4136 77.5373C36.675 77.1627 37.0279 76.8664 37.4722 76.6486C37.9252 76.4221 38.4393 76.3088 39.0143 76.3088C39.5109 76.3088 39.9944 76.4047 40.4649 76.5964C40.9441 76.788 41.3622 77.0581 41.7195 77.4066L40.8047 78.5436C40.5346 78.3258 40.2558 78.1559 39.9683 78.0339C39.6808 77.9119 39.3628 77.8509 39.0143 77.8509C38.6658 77.8509 38.3826 77.925 38.1648 78.0731C37.9557 78.2212 37.8512 78.4303 37.8512 78.7004C37.8512 78.8833 37.9078 79.0358 38.0211 79.1578C38.1343 79.2798 38.2912 79.3887 38.4915 79.4845C38.7006 79.5716 38.9272 79.6675 39.1711 79.772L40.2688 80.2163C40.6173 80.3557 40.9179 80.53 41.1706 80.7391C41.4232 80.9482 41.6193 81.2008 41.7587 81.497C41.9068 81.7845 41.9808 82.1287 41.9808 82.5295C41.9808 82.9999 41.8545 83.4355 41.6018 83.8363C41.3579 84.2284 40.9963 84.5464 40.5172 84.7903C40.0467 85.0255 39.4804 85.1432 38.8182 85.1432ZM42.3566 84.9863L45.0618 76.4657H47.2051L49.9102 84.9863H48.0153L46.8391 80.5953C46.7172 80.1597 46.5952 79.7023 46.4732 79.2231C46.36 78.7439 46.2423 78.2778 46.1204 77.8248H46.0681C45.9636 78.2778 45.8503 78.7439 45.7283 79.2231C45.6151 79.7023 45.4974 80.1597 45.3755 80.5953L44.1862 84.9863H42.3566ZM44.0817 82.8692V81.4709H48.1591V82.8692H44.0817ZM50.882 84.9863V76.4657H52.7247L55.077 80.8828L55.9395 82.7385H55.9918C55.9482 82.2855 55.8959 81.7889 55.835 81.2487C55.7827 80.7086 55.7565 80.1902 55.7565 79.6936V76.4657H57.4685V84.9863H55.6259L53.2735 80.5561L52.411 78.7135H52.3587C52.4023 79.1665 52.4502 79.6587 52.5025 80.1902C52.5635 80.7216 52.594 81.2357 52.594 81.7323V84.9863H50.882ZM58.437 84.9863L61.1422 76.4657H63.2854L65.9906 84.9863H64.0957L62.9195 80.5953C62.7975 80.1597 62.6756 79.7023 62.5536 79.2231C62.4403 78.7439 62.3227 78.2778 62.2007 77.8248H62.1485C62.0439 78.2778 61.9307 78.7439 61.8087 79.2231C61.6954 79.7023 61.5778 80.1597 61.4558 80.5953L60.2666 84.9863H58.437ZM60.1621 82.8692V81.4709H64.2394V82.8692H60.1621ZM66.9624 84.9863V76.4657H68.7528V83.4835H72.1767V84.9863H66.9624Z" fill="black"/>
<path d="M25.9909 13.0685C24.3823 15.6697 23.417 18.0913 23.1585 20.064L25.2228 23.823L27.6913 20.6099C27.7662 18.5736 27.2179 15.9375 25.9909 13.0685ZM58.2573 13.3504C55.803 14.9277 53.9982 16.6503 53.0022 18.3063L53.4118 22.6922L56.883 20.9702C57.7359 19.1677 58.2573 16.5265 58.2573 13.3504ZM50.345 15.9692C49.4694 17.9886 48.8962 19.8898 48.6068 21.5672L50.1914 27.1049L51.8972 23.817L51.3366 17.8441H51.3392C51.0309 17.2043 50.6993 16.5788 50.345 15.9692ZM19.8598 19.2213C19.8491 21.4642 20.0662 23.455 20.4527 25.1073L24.0208 29.346L24.2903 25.5631L21.4768 20.4394L21.4794 20.4363C20.9545 20.0071 20.4142 19.6019 19.8598 19.2213ZM31.3161 20.2324C30.5904 20.5688 29.9112 20.9248 29.2814 21.2974L25.8965 25.7104L25.6297 29.4902L29.9794 25.7373C30.5582 24.2105 31.022 22.3521 31.3161 20.2324ZM46.5992 22.3084C44.5274 27.8849 45.2056 31.7027 47.2781 32.7242L49.1026 29.2082L47.4129 23.3104C47.1493 22.9686 46.8781 22.6346 46.5992 22.3084ZM59.1925 22.3294C58.8001 22.3267 58.4189 22.3374 58.0473 22.3562L53.293 24.7141L51.5873 28.0049L56.9636 26.6941C58.0758 25.593 59.2135 24.138 60.2972 22.3652C59.9214 22.3444 59.5523 22.3319 59.1925 22.3294ZM39.6946 23.1665C37.6904 25.3972 36.3458 27.5826 35.7682 29.4692L37.1856 33.5881L40.1367 30.9242C40.5415 28.9367 40.433 26.2342 39.6946 23.1665ZM18.9247 26.7358C19.2075 32.7616 21.2947 35.8854 23.56 35.8166L23.8484 31.7636L20.0485 27.2517C19.6779 27.0693 19.3031 26.8972 18.9247 26.7358ZM31.2757 27.8278C30.7395 27.953 30.2073 28.0991 29.6803 28.2658L25.4572 31.9078L25.1716 35.9157C27.4562 36.6366 30.1011 33.9412 31.2757 27.8278ZM32.6607 27.9778C32.2847 30.1795 32.1734 32.1789 32.2835 33.8817L35.1024 38.7776L35.9838 35.1116L34.0514 29.5018H34.054C33.6085 28.9729 33.1435 28.4645 32.6607 27.9778ZM55.7214 28.8359L50.4986 30.1048L48.6931 33.5847C50.4767 35.3314 53.9052 34.164 57.3277 29.2048C56.7962 29.0612 56.2605 28.9382 55.7214 28.8359ZM43.7612 31.2867C42.9927 31.471 42.269 31.686 41.5892 31.9257L37.5386 35.5765L36.6572 39.2427L41.546 36.4316C42.3647 35.0469 43.1263 33.3125 43.7612 31.2867ZM57.1389 33.6927C54.9097 35.6437 53.3405 37.6343 52.5657 39.4316L53.5333 43.7066L56.7483 41.4535C57.3628 39.5345 57.5448 36.8371 57.1389 33.6927ZM46.5021 34.5178C43.5325 41.9646 41.3801 49.7871 41.0717 58.808H42.6861C42.9929 50.0922 45.064 42.5434 47.9735 35.2468L46.5021 34.5178ZM30.5158 35.1807C29.8109 41.1659 31.3535 44.6569 33.5933 45.0445L34.5394 41.1207L31.5371 35.9128C31.2022 35.6593 30.8617 35.4151 30.5158 35.1807ZM49.639 37.5357C49.0308 39.671 48.7062 41.6416 48.6338 43.3467L50.911 48.5875L52.1776 45.0624L50.8598 39.2366H50.865C50.4942 38.6752 50.0861 38.1076 49.639 37.5357ZM23.5546 37.6828C22.8075 44.8427 23.0086 49.152 24.7608 56.0856L26.8831 57.1746C25.0827 50.3807 24.4053 45.0786 25.1556 37.8898L23.5546 37.6828ZM42.4813 38.7478C41.911 38.7632 41.3643 38.7996 40.84 38.8558L36.0942 41.5886L35.159 45.4676C37.2882 46.6417 40.3281 44.5249 42.4813 38.7478ZM60.3082 42.2937C59.5259 42.3747 58.7849 42.4906 58.085 42.6387L53.6734 45.7314L52.4068 49.2504L57.5595 47.1084C58.5202 45.8419 59.4614 44.2213 60.3082 42.2937ZM46.7421 44.4056C45.403 50.2555 46.5614 53.9276 48.7443 54.6082L50.1 50.8374L47.6772 45.2667C47.3814 44.9787 47.0691 44.6922 46.7421 44.4056ZM33.313 46.8627C32.22 50.8209 31.3933 54.787 30.998 58.8082H32.6204C33.0091 54.995 33.801 51.2023 34.8544 47.3874L33.313 46.8627ZM56.5973 49.4215L51.5954 51.5035L50.2533 55.2354C52.2416 56.6847 55.4856 54.9852 58.2411 49.5325C57.6945 49.4742 57.1462 49.4371 56.5973 49.4215ZM48.2537 56.4922C48.0921 57.2326 47.9791 58.0048 47.9384 58.8082H49.55C49.5888 58.1664 49.6836 57.5405 49.8195 56.9183L48.2537 56.4922Z" fill="black"/>
</svg>
