<svg width="181" height="33" viewBox="0 0 181 33" fill="none" xmlns="http://www.w3.org/2000/svg">
<g clip-path="url(#clip0_28_396)">
<path d="M0 32.078V0.921936H6.57253V26.4279H17.9553V32.0823H0V32.078Z" fill="#ED73A9"/>
<path d="M23.4678 32.078V0.921936H30.0404V32.0823H23.4678V32.078Z" fill="#ED73A9"/>
<path d="M36.2596 16.5233C36.2596 6.3564 41.6828 0 50.3752 0C57.2585 0 62.1538 4.42791 63.2095 11.6555L57.1223 12.7932C56.3731 8.32295 53.9041 5.65014 50.3752 5.65014C45.7438 5.65014 42.8321 9.76932 42.8321 16.519C42.8321 23.2687 46.0971 27.2991 51.3032 27.2991C55.4919 27.2991 58.6249 24.1442 59.3741 18.9719L65.5508 19.9785C64.5377 27.9546 58.9782 32.9958 51.2606 32.9958C41.9978 32.9958 36.2639 26.6394 36.2639 16.519L36.2596 16.5233Z" fill="#ED73A9"/>
<path d="M68.9392 11.1988C68.9392 8.20876 71.123 6.06459 74.0814 6.06459C77.0399 6.06459 79.2237 8.20876 79.2237 11.1988C79.2237 14.1888 77.0655 16.2822 74.0814 16.2822C71.0974 16.2822 68.9137 14.138 68.9392 11.1988ZM76.9633 11.1988C76.9633 9.53671 75.7544 8.31026 74.107 8.31026C72.4596 8.31026 71.1996 9.53671 71.1996 11.1988C71.1996 12.8608 72.4341 14.0323 74.107 14.0323C75.7799 14.0323 76.9633 12.8566 76.9633 11.1988ZM74.4944 25.1465L73.6983 24.584L86.9924 5.85736L87.8395 6.41984L74.4944 25.1465ZM82.0545 20.1392C82.08 17.1492 84.2382 15.005 87.1967 15.005C90.1552 15.005 92.3389 17.1492 92.3389 20.1392C92.3389 23.1292 90.1807 25.2226 87.1967 25.2226C84.2127 25.2226 82.0545 23.0784 82.0545 20.1392ZM90.0786 20.1392C90.0786 18.4771 88.8696 17.2507 87.2222 17.2507C85.5749 17.2507 84.3148 18.4771 84.3148 20.1392C84.3148 21.8012 85.5238 22.9727 87.2222 22.9727C88.9207 22.9727 90.0786 21.797 90.0786 20.1392Z" fill="#ED73A9"/>
<path d="M112.627 28.3522L111.261 23.0065C110.775 21.1668 109.498 19.8516 107.821 19.8516H103.896V32.078H97.3237V0.921936H110.158C117.126 0.921936 121.541 4.64781 121.541 10.5179C121.541 14.4637 119.072 17.7032 114.836 18.7139V18.7562C116.467 19.4583 117.263 20.8158 117.705 22.6132L118.718 26.7324C118.94 27.7389 119.378 28.3987 120.174 28.3987C120.792 28.3987 121.456 27.9588 122.073 27.1257L123.703 30.3229C122.29 31.9004 120.174 32.8224 118.012 32.8224C115.1 32.8224 113.291 31.025 112.631 28.3522H112.627ZM103.892 15.208H109.626C112.844 15.208 114.964 13.4106 114.964 10.6067C114.964 7.80275 112.848 5.91655 109.626 5.91655H103.892V15.208Z" fill="#ED73A9"/>
<path d="M128.726 32.078V0.921936H136.844L148.048 24.2795H148.137V0.921936H154.314V32.0823H146.154L134.95 8.81352H134.86V32.0823H128.731L128.726 32.078Z" fill="#ED73A9"/>
<path d="M161.5 32.078V0.921936H180.557V6.26757H167.855V13.7193H178.795V18.4517H167.855V26.7789H181V32.0823H161.504L161.5 32.078Z" fill="#ED73A9"/>
</g>
<defs>
<clipPath id="clip0_28_396">
<rect width="181" height="33" fill="white"/>
</clipPath>
</defs>
</svg>
