<svg width="773" height="132" viewBox="0 0 773 132" fill="none" xmlns="http://www.w3.org/2000/svg">
<g clip-path="url(#clip0_28_362)">
<path d="M0 128.312L0 3.68781L28.0694 3.68781L28.0694 105.712L76.6819 105.712V128.329H0L0 128.312Z" fill="#ED73A9"/>
<path d="M100.225 128.312L100.225 3.68781L128.294 3.68781L128.294 128.329H100.225V128.312Z" fill="#ED73A9"/>
<path d="M154.855 66.0931C154.855 25.4256 178.015 0 215.138 0C244.535 0 265.442 17.7117 269.95 46.6221L243.953 51.1726C240.754 33.2918 230.209 22.6005 215.138 22.6005C195.359 22.6005 182.924 39.0773 182.924 66.0761C182.924 93.075 196.868 109.196 219.101 109.196C236.99 109.196 250.371 96.5767 253.57 75.8878L279.949 79.9139C275.622 111.819 251.879 131.983 218.92 131.983C179.361 131.983 154.873 106.558 154.873 66.0761L154.855 66.0931Z" fill="#ED73A9"/>
<path d="M294.42 44.7951C294.42 32.8351 303.746 24.2584 316.381 24.2584C329.016 24.2584 338.342 32.8351 338.342 44.7951C338.342 56.7551 329.125 65.1288 316.381 65.1288C303.637 65.1288 294.311 56.5521 294.42 44.7951ZM328.689 44.7951C328.689 38.1469 323.526 33.2411 316.49 33.2411C309.454 33.2411 304.073 38.1469 304.073 44.7951C304.073 51.4433 309.345 56.1292 316.49 56.1292C323.635 56.1292 328.689 51.4264 328.689 44.7951ZM318.144 100.586L314.745 98.336L371.52 23.4294L375.138 25.6793L318.144 100.586ZM350.431 80.5567C350.541 68.5967 359.758 60.02 372.393 60.02C385.027 60.02 394.354 68.5967 394.354 80.5567C394.354 92.5167 385.137 100.89 372.393 100.89C359.649 100.89 350.431 92.3137 350.431 80.5567ZM384.7 80.5567C384.7 73.9085 379.537 69.0027 372.502 69.0027C365.466 69.0027 360.085 73.9085 360.085 80.5567C360.085 87.2049 365.248 91.8908 372.502 91.8908C379.755 91.8908 384.7 87.188 384.7 80.5567Z" fill="#ED73A9"/>
<path d="M480.998 113.409L475.162 92.0261C473.09 84.6674 467.636 79.4064 460.473 79.4064L443.711 79.4064V128.312H415.642V3.68781L470.454 3.68781C500.214 3.68781 519.066 18.5913 519.066 42.0715C519.066 57.8547 508.522 70.8128 490.433 74.8558V75.025C497.396 77.8331 500.796 83.2634 502.686 90.4529L507.013 106.93C507.958 110.956 509.831 113.595 513.231 113.595C515.867 113.595 518.703 111.835 521.339 108.503L528.302 121.292C522.266 127.602 513.231 131.29 503.995 131.29C491.56 131.29 483.834 124.1 481.016 113.409H480.998ZM443.693 60.832H468.181C481.925 60.832 490.979 53.6424 490.979 42.4268C490.979 31.2111 481.943 23.6663 468.181 23.6663L443.693 23.6663V60.832Z" fill="#ED73A9"/>
<path d="M549.753 128.312V3.68781L584.422 3.68781L632.271 97.118H632.653V3.68781L659.031 3.68781V128.329H624.181L576.332 35.2541H575.95V128.329H549.772L549.753 128.312Z" fill="#ED73A9"/>
<path d="M689.719 128.312V3.68781L771.109 3.68781V25.0703L716.861 25.0703V54.8773L763.583 54.8773V73.807L716.861 73.807V107.116L773 107.116V128.329H689.737L689.719 128.312Z" fill="#ED73A9"/>
</g>
<defs>
<clipPath id="clip0_28_362">
<rect width="773" height="132" fill="white"/>
</clipPath>
</defs>
</svg>
