<svg width="81" height="100" viewBox="0 0 81 100" fill="none" xmlns="http://www.w3.org/2000/svg">
<circle cx="40.2945" cy="30.4932" r="29.4041" stroke="black" stroke-width="2.17808"/>
<path d="M4.24289 85.1432C3.6853 85.1432 3.12771 85.0386 2.57012 84.8295C2.02124 84.6117 1.53335 84.3024 1.10645 83.9016L2.13886 82.6732C2.44379 82.952 2.78357 83.1742 3.1582 83.3397C3.54154 83.5052 3.91617 83.588 4.28209 83.588C4.709 83.588 5.027 83.5096 5.23609 83.3528C5.4539 83.1872 5.5628 82.9607 5.5628 82.6732C5.5628 82.4815 5.51053 82.3247 5.40598 82.2027C5.30143 82.0808 5.15333 81.9762 4.96165 81.8891C4.7787 81.7933 4.56089 81.6931 4.30823 81.5885L3.18434 81.105C2.88812 80.983 2.60933 80.8218 2.34796 80.6215C2.08659 80.4211 1.87313 80.1728 1.7076 79.8765C1.54206 79.5716 1.4593 79.2144 1.4593 78.8049C1.4593 78.3345 1.58563 77.9119 1.83828 77.5373C2.09965 77.1627 2.4525 76.8664 2.89683 76.6486C3.34987 76.4221 3.8639 76.3088 4.43891 76.3088C4.93552 76.3088 5.41905 76.4047 5.88952 76.5964C6.3687 76.788 6.78689 77.0581 7.14409 77.4066L6.2293 78.5436C5.95922 78.3258 5.68042 78.1559 5.39291 78.0339C5.10541 77.9119 4.78741 77.8509 4.43891 77.8509C4.09042 77.8509 3.80727 77.925 3.58946 78.0731C3.38037 78.2212 3.27582 78.4303 3.27582 78.7004C3.27582 78.8833 3.33245 79.0358 3.44571 79.1578C3.55897 79.2798 3.71579 79.3887 3.91617 79.4845C4.12527 79.5716 4.35179 79.6675 4.59574 79.772L5.69349 80.2163C6.04198 80.3557 6.34256 80.53 6.59522 80.7391C6.84787 80.9482 7.0439 81.2008 7.1833 81.497C7.33141 81.7845 7.40546 82.1287 7.40546 82.5295C7.40546 82.9999 7.27913 83.4355 7.02648 83.8363C6.78253 84.2284 6.42097 84.5464 5.94179 84.7903C5.47133 85.0255 4.90502 85.1432 4.24289 85.1432ZM7.78128 84.9863L10.4865 76.4657H12.6297L15.3349 84.9863H13.4399L12.2638 80.5953C12.1418 80.1597 12.0198 79.7023 11.8979 79.2231C11.7846 78.7439 11.667 78.2778 11.545 77.8248H11.4927C11.3882 78.2778 11.2749 78.7439 11.153 79.2231C11.0397 79.7023 10.9221 80.1597 10.8001 80.5953L9.61087 84.9863H7.78128ZM9.50633 82.8692V81.4709H13.5837V82.8692H9.50633ZM16.3066 84.9863V76.4657H18.1493L20.5016 80.8828L21.3641 82.7385H21.4164C21.3729 82.2855 21.3206 81.7889 21.2596 81.2487C21.2073 80.7086 21.1812 80.1902 21.1812 79.6936V76.4657H22.8932V84.9863H21.0505L18.6982 80.5561L17.8357 78.7135H17.7834C17.8269 79.1665 17.8749 79.6587 17.9271 80.1902C17.9881 80.7216 18.0186 81.2357 18.0186 81.7323V84.9863H16.3066ZM27.5339 85.1432C26.9763 85.1432 26.4187 85.0386 25.8611 84.8295C25.3123 84.6117 24.8244 84.3024 24.3975 83.9016L25.4299 82.6732C25.7348 82.952 26.0746 83.1742 26.4492 83.3397C26.8326 83.5052 27.2072 83.588 27.5731 83.588C28 83.588 28.318 83.5096 28.5271 83.3528C28.7449 83.1872 28.8538 82.9607 28.8538 82.6732C28.8538 82.4815 28.8015 82.3247 28.697 82.2027C28.5925 82.0808 28.4443 81.9762 28.2527 81.8891C28.0697 81.7933 27.8519 81.6931 27.5992 81.5885L26.4754 81.105C26.1791 80.983 25.9003 80.8218 25.639 80.6215C25.3776 80.4211 25.1641 80.1728 24.9986 79.8765C24.8331 79.5716 24.7503 79.2144 24.7503 78.8049C24.7503 78.3345 24.8766 77.9119 25.1293 77.5373C25.3907 77.1627 25.7435 76.8664 26.1878 76.6486C26.6409 76.4221 27.1549 76.3088 27.7299 76.3088C28.2265 76.3088 28.7101 76.4047 29.1805 76.5964C29.6597 76.788 30.0779 77.0581 30.4351 77.4066L29.5203 78.5436C29.2502 78.3258 28.9714 78.1559 28.6839 78.0339C28.3964 77.9119 28.0784 77.8509 27.7299 77.8509C27.3814 77.8509 27.0983 77.925 26.8805 78.0731C26.6714 78.2212 26.5668 78.4303 26.5668 78.7004C26.5668 78.8833 26.6235 79.0358 26.7367 79.1578C26.85 79.2798 27.0068 79.3887 27.2072 79.4845C27.4163 79.5716 27.6428 79.6675 27.8868 79.772L28.9845 80.2163C29.333 80.3557 29.6336 80.53 29.8862 80.7391C30.1389 80.9482 30.3349 81.2008 30.4743 81.497C30.6224 81.7845 30.6965 82.1287 30.6965 82.5295C30.6965 82.9999 30.5701 83.4355 30.3175 83.8363C30.0735 84.2284 29.712 84.5464 29.2328 84.7903C28.7623 85.0255 28.196 85.1432 27.5339 85.1432ZM33.6886 84.9863L36.3937 76.4657H38.537L41.2421 84.9863H39.3472L38.171 80.5953C38.0491 80.1597 37.9271 79.7023 37.8051 79.2231C37.6919 78.7439 37.5743 78.2778 37.4523 77.8248H37.4C37.2955 78.2778 37.1822 78.7439 37.0602 79.2231C36.947 79.7023 36.8293 80.1597 36.7074 80.5953L35.5181 84.9863H33.6886ZM35.4136 82.8692V81.4709H39.491V82.8692H35.4136ZM42.2139 84.9863V76.4657H44.0043V83.4835H47.4282V84.9863H42.2139ZM52.4295 85.1432C51.7064 85.1432 51.0486 84.9776 50.4561 84.6465C49.8637 84.3155 49.3889 83.8232 49.0317 83.1698C48.6745 82.5164 48.4959 81.7148 48.4959 80.7652C48.4959 80.0595 48.6004 79.4322 48.8095 78.8833C49.0186 78.3345 49.3061 77.8684 49.672 77.485C50.0467 77.093 50.4736 76.8011 50.9527 76.6094C51.4406 76.409 51.9503 76.3088 52.4818 76.3088C53.0306 76.3088 53.5185 76.4178 53.9454 76.6356C54.381 76.8534 54.7383 77.1104 55.017 77.4066L54.063 78.5566C53.8452 78.3475 53.6144 78.1776 53.3704 78.047C53.1265 77.9163 52.8433 77.8509 52.521 77.8509C52.1115 77.8509 51.7412 77.9685 51.4101 78.2038C51.0791 78.4303 50.8177 78.757 50.626 79.1839C50.4344 79.6108 50.3385 80.1205 50.3385 80.7129C50.3385 81.3141 50.4256 81.8325 50.5999 82.2681C50.7741 82.695 51.0224 83.0217 51.3448 83.2482C51.6759 83.4747 52.0592 83.588 52.4948 83.588C52.852 83.588 53.17 83.5096 53.4488 83.3528C53.7363 83.1959 53.989 82.9999 54.2068 82.7647L55.1608 83.8886C54.8123 84.2981 54.4072 84.6117 53.9454 84.8295C53.4837 85.0386 52.9784 85.1432 52.4295 85.1432ZM59.9188 85.1432C59.1608 85.1432 58.4899 84.9645 57.9062 84.6073C57.3312 84.2501 56.8825 83.7405 56.5602 83.0783C56.2378 82.4075 56.0766 81.6103 56.0766 80.6868C56.0766 79.7633 56.2378 78.9748 56.5602 78.3214C56.8825 77.668 57.3312 77.1714 57.9062 76.8316C58.4899 76.4831 59.1608 76.3088 59.9188 76.3088C60.6767 76.3088 61.3432 76.4831 61.9182 76.8316C62.4932 77.1714 62.9419 77.668 63.2643 78.3214C63.5866 78.9748 63.7478 79.7633 63.7478 80.6868C63.7478 81.6103 63.5866 82.4075 63.2643 83.0783C62.9419 83.7405 62.4932 84.2501 61.9182 84.6073C61.3432 84.9645 60.6767 85.1432 59.9188 85.1432ZM59.9188 83.588C60.3195 83.588 60.668 83.4704 60.9642 83.2351C61.2692 82.9999 61.5 82.6645 61.6569 82.2289C61.8224 81.7933 61.9052 81.2792 61.9052 80.6868C61.9052 80.0944 61.8224 79.589 61.6569 79.1708C61.5 78.7439 61.2692 78.4172 60.9642 78.1907C60.668 77.9642 60.3195 77.8509 59.9188 77.8509C59.5093 77.8509 59.1521 77.9642 58.8471 78.1907C58.5509 78.4172 58.32 78.7439 58.1545 79.1708C57.9977 79.589 57.9193 80.0944 57.9193 80.6868C57.9193 81.2792 57.9977 81.7933 58.1545 82.2289C58.32 82.6645 58.5509 82.9999 58.8471 83.2351C59.1521 83.4704 59.5093 83.588 59.9188 83.588ZM68.814 85.1432C68.056 85.1432 67.3852 84.9645 66.8015 84.6073C66.2264 84.2501 65.7778 83.7405 65.4554 83.0783C65.133 82.4075 64.9719 81.6103 64.9719 80.6868C64.9719 79.7633 65.133 78.9748 65.4554 78.3214C65.7778 77.668 66.2264 77.1714 66.8015 76.8316C67.3852 76.4831 68.056 76.3088 68.814 76.3088C69.572 76.3088 70.2385 76.4831 70.8135 76.8316C71.3885 77.1714 71.8372 77.668 72.1595 78.3214C72.4819 78.9748 72.6431 79.7633 72.6431 80.6868C72.6431 81.6103 72.4819 82.4075 72.1595 83.0783C71.8372 83.7405 71.3885 84.2501 70.8135 84.6073C70.2385 84.9645 69.572 85.1432 68.814 85.1432ZM68.814 83.588C69.2148 83.588 69.5633 83.4704 69.8595 83.2351C70.1644 82.9999 70.3953 82.6645 70.5521 82.2289C70.7177 81.7933 70.8004 81.2792 70.8004 80.6868C70.8004 80.0944 70.7177 79.589 70.5521 79.1708C70.3953 78.7439 70.1644 78.4172 69.8595 78.1907C69.5633 77.9642 69.2148 77.8509 68.814 77.8509C68.4045 77.8509 68.0473 77.9642 67.7424 78.1907C67.4462 78.4172 67.2153 78.7439 67.0498 79.1708C66.8929 79.589 66.8145 80.0944 66.8145 80.6868C66.8145 81.2792 66.8929 81.7933 67.0498 82.2289C67.2153 82.6645 67.4462 82.9999 67.7424 83.2351C68.0473 83.4704 68.4045 83.588 68.814 83.588ZM74.2853 84.9863V76.4657H76.0757V83.4835H79.4996V84.9863H74.2853Z" fill="black"/>
<path d="M28.6111 51.348V48.9746H39.2916V33.374L18.5145 12.5828L20.1949 10.8905L60.7616 51.4572L59.0694 53.1518L41.665 35.7475V48.9746H52.3454V51.348H28.6111ZM45.3913 29.4128L35.2828 19.3067H51.275L55.5472 14.5598H30.536L28.1625 12.1864H58.6445V14.5598L45.3913 29.4128Z" fill="black"/>
</svg>
