<svg width="28" height="27" viewBox="0 0 28 27" fill="none" xmlns="http://www.w3.org/2000/svg">
<path d="M9.33335 6.3C9.33335 5.10653 9.82501 3.96193 10.7002 3.11802C11.5754 2.27411 12.7623 1.8 14 1.8C15.2377 1.8 16.4247 2.27411 17.2998 3.11802C18.175 3.96193 18.6667 5.10653 18.6667 6.3V7.2H20.5333V6.3C20.5333 4.62914 19.845 3.02671 18.6198 1.84523C17.3945 0.663748 15.7328 0 14 0C12.2673 0 10.6055 0.663748 9.38025 1.84523C8.15501 3.02671 7.46668 4.62914 7.46668 6.3V7.2H9.33335V6.3ZM3.55415 11.4012C3.6304 10.7409 3.95647 10.1308 4.46996 9.68781C4.98346 9.24479 5.64833 8.99991 6.33735 9H21.6627C22.3514 9.00035 23.0158 9.24544 23.5289 9.68841C24.042 10.1314 24.3678 10.7412 24.444 11.4012L25.8981 24.0012C25.9417 24.3787 25.9022 24.7608 25.7823 25.1225C25.6623 25.4843 25.4645 25.8176 25.2018 26.1006C24.9391 26.3836 24.6175 26.61 24.2579 26.765C23.8983 26.92 23.5088 27.0001 23.1149 27H4.88508C4.49136 26.9998 4.10211 26.9195 3.74273 26.7644C3.38336 26.6093 3.06195 26.3829 2.79948 26.0999C2.53701 25.8169 2.33938 25.4837 2.2195 25.1221C2.09962 24.7605 2.06017 24.3785 2.10375 24.0012L3.55415 11.4012Z" fill="black"/>
</svg>
